<svg version="1.1" id="progressiveMoose" xmlns="http://www.w3.org/2000/svg" x="0px" y="0px"
viewBox="0 0 1080 1008" style="enable-background:new 0 0 1080 1008;" xml:space="preserve">
<style>
.st0{fill:#FEFEFE;}
.st1{fill:#F4F2EC;}
.st2{fill:#F5F2EB;}
.st3{fill:#1505BC;}
.st4{fill:#DD0201;}
.st5{fill:#FBFBFD;}
.st6{fill:#FCFCFD;}
.st7{fill:#FDF6F5;}
</style>	

<path class="st0" d="M1081,96c0,304.3,0,608.7,0,913c-329.7,0-659.3,0-989,0c-0.7-0.3-1.3-0.7-2-1c0,0,0,0,0,0
c-0.3-0.3-0.7-0.7-1-1c0,0,0,0,0,0c-0.3-0.3-0.7-0.7-1-1c0,0,0,0,0,0c-0.3-0.3-0.7-0.7-1-1c0,0,0,0,0,0c-0.3-0.3-0.7-0.7-1-1
c0,0,0,0,0,0c-0.3-0.3-0.7-0.7-1-1c0,0,0,0,0,0c-0.3-0.3-0.7-0.7-1-1c0,0,0,0,0,0c-0.3-0.3-0.7-0.7-1-1c0,0,0,0,0,0
c-0.3-0.3-0.7-0.7-1-1c0,0,0,0,0,0c-0.3-0.3-0.7-0.7-1-1c0,0,0,0,0,0c-0.3-0.3-0.7-0.7-1-1c0,0,0,0,0,0c-0.3-0.3-0.7-0.7-1-1
c0,0,0,0,0,0c-0.3-0.3-0.7-0.7-1-1c0,0,0,0,0,0c-0.3-0.3-0.7-0.7-1-1c0,0,0,0,0,0c-0.3-0.3-0.7-0.7-1-1c0,0,0,0,0,0
c-0.3-0.3-0.7-0.7-1-1c0,0,0,0,0,0c-0.3-0.3-0.7-0.7-1-1c0,0,0,0,0,0c-0.3-0.3-0.7-0.7-1-1c0,0,0,0,0,0c-0.3-0.3-0.7-0.7-1-1
c0,0,0,0,0,0c-0.3-0.3-0.7-0.7-1-1c0,0,0,0,0,0c-0.3-0.3-0.7-0.7-1-1c0,0,0,0,0,0c-0.3-0.3-0.7-0.7-1-1c0,0,0,0,0,0
c-0.3-0.3-0.7-0.7-1-1c0,0,0,0,0,0c-0.3-0.3-0.7-0.7-1-1c0,0,0,0,0,0c-0.3-0.3-0.7-0.7-1-1c0,0,0,0,0,0c-0.3-0.3-0.7-0.7-1-1
c0,0,0,0,0,0c-0.3-0.3-0.7-0.7-1-1c0,0,0,0,0,0c-0.3-0.3-0.7-0.7-1-1c0,0,0,0,0,0c-0.3-0.3-0.7-0.7-1-1c0,0,0,0,0,0
c-0.3-0.3-0.7-0.7-1-1c0,0,0,0,0,0c-0.3-0.3-0.7-0.7-1-1c0,0,0,0,0,0c-0.3-0.3-0.7-0.7-1-1c0,0,0,0,0,0c-0.3-0.3-0.7-0.7-1-1
c0,0,0,0,0,0c-0.3-0.3-0.7-0.7-1-1c0,0,0,0,0,0c-0.3-0.3-0.7-0.7-1-1c0,0,0,0,0,0c-0.3-0.3-0.7-0.7-1-1c0,0,0,0,0,0
c-0.3-0.3-0.7-0.7-1-1c0,0,0,0,0,0c-0.3-0.3-0.7-0.7-1-1c0,0,0,0,0,0c-0.3-0.3-0.7-0.7-1-1c0,0,0,0,0,0c-0.3-0.3-0.7-0.7-1-1
c0,0,0,0,0,0c-0.3-0.3-0.7-0.7-1-1c0,0,0,0,0,0c-0.3-0.3-0.7-0.7-1-1c0,0,0,0,0,0c-0.3-0.3-0.7-0.7-1-1c0,0,0,0,0,0
c-0.3-0.3-0.7-0.7-1-1c0,0,0,0,0,0c-0.3-0.3-0.7-0.7-1-1c0,0,0,0,0,0c-0.3-0.3-0.7-0.7-1-1c0,0,0,0,0,0c-0.3-0.3-0.7-0.7-1-1
c0,0,0,0,0,0c-0.3-0.3-0.7-0.7-1-1l0,0c-0.3-0.3-0.7-0.7-1-1c0,0,0,0,0,0c-0.3-0.3-0.7-0.7-1-1c0,0,0,0,0,0c-0.3-0.3-0.7-0.7-1-1
c0,0,0,0,0,0c-0.3-0.3-0.7-0.7-1-1c0,0,0,0,0,0c-0.3-0.3-0.7-0.7-1-1c0,0,0,0,0,0c-0.3-0.3-0.7-0.7-1-1c0,0,0,0,0,0
c-0.3-0.3-0.7-0.7-1-1c0,0,0,0,0,0c-0.3-0.3-0.7-0.7-1-1c0,0,0,0,0,0c-0.3-0.3-0.7-0.7-1-1l0,0c-0.3-0.3-0.7-0.7-1-1c0,0,0,0,0,0
c-0.3-0.3-0.7-0.7-1-1c0,0,0,0,0,0c-0.3-0.3-0.7-0.7-1-1c0,0,0,0,0,0c-0.3-0.3-0.7-0.7-1-1c0,0,0,0,0,0c-0.3-0.3-0.7-0.7-1-1
c0,0,0,0,0,0c-0.3-0.3-0.7-0.7-1-1c0,0,0,0,0,0c-0.3-0.3-0.7-0.7-1-1c0,0,0,0,0,0c-0.3-0.3-0.7-0.7-1-1c0,0,0,0,0,0
c-0.3-0.3-0.7-0.7-1-1c0,0,0,0,0,0c-0.3-0.3-0.7-0.7-1-1c0,0,0,0,0,0c-0.3-0.3-0.7-0.7-1-1c0,0,0,0,0,0c-0.3-0.3-0.7-0.7-1-1
c0,0,0,0,0,0c-0.3-0.3-0.7-0.7-1-1c0,0,0,0,0,0c-0.3-0.3-0.7-0.7-1-1c0,0,0,0,0,0c-0.3-0.3-0.7-0.7-1-1c0,0,0,0,0,0
c-0.3-0.3-0.7-0.7-1-1c0,0,0,0,0,0c-0.3-0.3-0.7-0.7-1-1c0,0,0,0,0,0c-0.3-0.3-0.7-0.7-1-1c0,0,0,0,0,0c-0.3-0.3-0.7-0.7-1-1
c0,0,0,0,0,0c-0.3-0.3-0.7-0.7-1-1c0,0,0,0,0,0c-0.3-0.3-0.7-0.7-1-1c0,0,0,0,0,0c-0.3-0.3-0.7-0.7-1-1c0,0,0,0,0,0
c-0.3-0.3-0.7-0.7-1-1c0,0,0,0,0,0c-0.3-0.3-0.7-0.7-1-1c0,0,0,0,0,0c-0.3-0.3-0.7-0.7-1-1c0,0,0,0,0,0c-0.3-0.3-0.7-0.7-1-1
c0,0,0,0,0,0c-0.3-0.3-0.7-0.7-1-1c0,0,0,0,0,0c-0.3-0.3-0.7-0.7-1-1c0,0,0,0,0,0c-0.3-0.3-0.7-0.7-1-1c0,0,0,0,0,0
c-0.3-0.3-0.7-0.7-1-1c0,0,0,0,0,0c-0.3-0.3-0.7-0.7-1-1c0,0,0,0,0,0c-0.3-0.3-0.7-0.7-1-1c0,0,0,0,0,0c-0.3-0.7-0.7-1.3-1-2
C1,612.3,1,306.7,1,1c328.3,0,656.7,0,985,0c0.7,0.3,1.3,0.7,2,1c0,0,0,0,0,0c0.3,0.3,0.7,0.7,1,1c0,0,0,0,0,0
c0.3,0.3,0.7,0.7,1,1c0,0,0,0,0,0c0.3,0.3,0.7,0.7,1,1c0,0,0,0,0,0c0.3,0.3,0.7,0.7,1,1c0,0,0,0,0,0c0.3,0.3,0.7,0.7,1,1
c0,0,0,0,0,0c0.3,0.3,0.7,0.7,1,1c0,0,0,0,0,0c0.3,0.3,0.7,0.7,1,1c0,0,0,0,0,0c0.3,0.3,0.7,0.7,1,1c0,0,0,0,0,0
c0.3,0.3,0.7,0.7,1,1c0,0,0,0,0,0c0.3,0.3,0.7,0.7,1,1c0,0,0,0,0,0c0.3,0.3,0.7,0.7,1,1c0,0,0,0,0,0c0.3,0.3,0.7,0.7,1,1
c0,0,0,0,0,0c0.3,0.3,0.7,0.7,1,1c0,0,0,0,0,0c0.3,0.3,0.7,0.7,1,1c0,0,0,0,0,0c0.3,0.3,0.7,0.7,1,1c0,0,0,0,0,0
c0.3,0.3,0.7,0.7,1,1c0,0,0,0,0,0c0.3,0.3,0.7,0.7,1,1c0,0,0,0,0,0c0.3,0.3,0.7,0.7,1,1c0,0,0,0,0,0c0.3,0.3,0.7,0.7,1,1
c0,0,0,0,0,0c0.3,0.3,0.7,0.7,1,1c0,0,0,0,0,0c0.3,0.3,0.7,0.7,1,1c0,0,0,0,0,0c0.3,0.3,0.7,0.7,1,1c0,0,0,0,0,0
c0.3,0.3,0.7,0.7,1,1c0,0,0,0,0,0c0.3,0.3,0.7,0.7,1,1c0,0,0,0,0,0c0.3,0.3,0.7,0.7,1,1c0,0,0,0,0,0c0.3,0.3,0.7,0.7,1,1
c0,0,0,0,0,0c0.3,0.3,0.7,0.7,1,1c0,0,0,0,0,0c0.3,0.3,0.7,0.7,1,1c0,0,0,0,0,0c0.3,0.3,0.7,0.7,1,1c0,0,0,0,0,0
c0.3,0.3,0.7,0.7,1,1c0,0,0,0,0,0c0.3,0.3,0.7,0.7,1,1c0,0,0,0,0,0c0.3,0.3,0.7,0.7,1,1c0,0,0,0,0,0c0.3,0.3,0.7,0.7,1,1
c0,0,0,0,0,0c0.3,0.3,0.7,0.7,1,1c0,0,0,0,0,0c0.3,0.3,0.7,0.7,1,1c0,0,0,0,0,0c0.3,0.3,0.7,0.7,1,1c0,0,0,0,0,0
c0.3,0.3,0.7,0.7,1,1c0,0,0,0,0,0c0.3,0.3,0.7,0.7,1,1c0,0,0,0,0,0c0.3,0.3,0.7,0.7,1,1c0,0,0,0,0,0c0.3,0.3,0.7,0.7,1,1
c0,0,0,0,0,0c0.3,0.3,0.7,0.7,1,1c0,0,0,0,0,0c0.3,0.3,0.7,0.7,1,1c0,0,0,0,0,0c0.3,0.3,0.7,0.7,1,1c0,0,0,0,0,0
c0.3,0.3,0.7,0.7,1,1c0,0,0,0,0,0c0.3,0.3,0.7,0.7,1,1c0,0,0,0,0,0c0.3,0.3,0.7,0.7,1,1c0,0,0,0,0,0c0.3,0.3,0.7,0.7,1,1
c0,0,0,0,0,0c0.3,0.3,0.7,0.7,1,1c0,0,0,0,0,0c0.3,0.3,0.7,0.7,1,1c0,0,0,0,0,0c0.3,0.3,0.7,0.7,1,1c0,0,0,0,0,0
c0.3,0.3,0.7,0.7,1,1c0,0,0,0,0,0c0.3,0.3,0.7,0.7,1,1c0,0,0,0,0,0c0.3,0.3,0.7,0.7,1,1c0,0,0,0,0,0c0.3,0.3,0.7,0.7,1,1
c0,0,0,0,0,0c0.3,0.3,0.7,0.7,1,1c0,0,0,0,0,0c0.3,0.3,0.7,0.7,1,1c0,0,0,0,0,0c0.3,0.3,0.7,0.7,1,1c0,0,0,0,0,0
c0.3,0.3,0.7,0.7,1,1c0,0,0,0,0,0c0.3,0.3,0.7,0.7,1,1c0,0,0,0,0,0c0.3,0.3,0.7,0.7,1,1c0,0,0,0,0,0c0.3,0.3,0.7,0.7,1,1
c0,0,0,0,0,0c0.3,0.3,0.7,0.7,1,1l0,0c0.3,0.3,0.7,0.7,1,1l0,0c0.3,0.3,0.7,0.7,1,1c0,0,0,0,0,0c0.3,0.3,0.7,0.7,1,1c0,0,0,0,0,0
c0.3,0.3,0.7,0.7,1,1c0,0,0,0,0,0c0.3,0.3,0.7,0.7,1,1l0,0c0.3,0.3,0.7,0.7,1,1c0,0,0,0,0,0c0.3,0.3,0.7,0.7,1,1c0,0,0,0,0,0
c0.3,0.3,0.7,0.7,1,1c0,0,0,0,0,0c0.3,0.3,0.7,0.7,1,1c0,0,0,0,0,0c0.3,0.3,0.7,0.7,1,1l0,0c0.3,0.3,0.7,0.7,1,1l0,0
c0.3,0.3,0.7,0.7,1,1c0,0,0,0,0,0c0.3,0.3,0.7,0.7,1,1c0,0,0,0,0,0c0.3,0.3,0.7,0.7,1,1c0,0,0,0,0,0c0.3,0.3,0.7,0.7,1,1l0,0
c0.3,0.3,0.7,0.7,1,1l0,0c0.3,0.3,0.7,0.7,1,1c0,0,0,0,0,0c0.3,0.3,0.7,0.7,1,1c0,0,0,0,0,0c0.3,0.3,0.7,0.7,1,1c0,0,0,0,0,0
c0.3,0.3,0.7,0.7,1,1c0,0,0,0,0,0c0.3,0.3,0.7,0.7,1,1c0,0,0,0,0,0c0.3,0.3,0.7,0.7,1,1c0,0,0,0,0,0c0.3,0.3,0.7,0.7,1,1
c0,0,0,0,0,0c0.3,0.3,0.7,0.7,1,1c0,0,0,0,0,0c0.3,0.3,0.7,0.7,1,1c0,0,0,0,0,0c0.3,0.3,0.7,0.7,1,1l0,0c0.3,0.3,0.7,0.7,1,1
c0,0,0,0,0,0c0.3,0.3,0.7,0.7,1,1c0,0,0,0,0,0c0.3,0.3,0.7,0.7,1,1c0,0,0,0,0,0c0.3,0.3,0.7,0.7,1,1c0,0,0,0,0,0
C1080.3,94.7,1080.7,95.3,1081,96z M321.1,410c4,5.6,3.3,10.9,1.1,16.3c-3.5,8.5-10.2,13.7-18.3,17.5c-5.2,2.4-5.9,4.3-3.9,9.4
c4.3,10.9,8.9,21.8,13.1,32.8c1.5,4,3.6,5.4,8,5.4c214.7-0.1,429.3-0.1,644-0.1c1.8,0,3.5,0,5.1,0c1.1-4.5,1.7-8.5,3.1-12.2
c3.9-10.4,3.9-20.9,1.1-31.3c-12.9-48.2-40-86.9-79.6-116.8c-22.5-17-48.5-21.7-75.9-18.8c-9.6,1-19.1,4.1-28.4,6.9
c-21.7,6.7-44.1,9.7-66.5,11.8c-11.7,1.1-23.8,2.4-35.3,0.7c-27.5-4.2-54.6-11.4-80.2-22.4c-20.5-8.8-40.4-19.4-60.4-29.5
c-23.5-11.9-48-19.3-74.6-17.5c-7,0.5-13.9,1.1-20.9,1.6c-6.2,0.5-12.3,0.8-19.4,1.3c7.8-8.3,15.3-14.7,25.1-18.5
c5.2-2,9.9-5.9,14.4-9.4c3.7-2.8,6.7-6.5,10.1-9.6c13.1-11.9,22.2-26.4,28.1-43c8-22.3,11.2-45.7,15.1-68.9
c1.4-8.6,0.9-17.7-3-25.9c-1.1-2.3-3.7-5.4-5.5-5.3c-2.3,0.1-5.6,2.5-6.7,4.7c-1.6,3.6-2,7.9-2.4,11.9c-0.3,2.5-0.2,4.7-3.3,5.2
c-4.2,0.6-6.4,3.4-8.3,7c-1.5,3-4.2,5.9-8,4.3c-3.7-1.5-2.6-5.3-2.2-8.4c0.2-1.6,0.9-3.2,1.4-4.8c1.9-6.2,4.3-12.3,5.4-18.6
c1-5.4,1.3-11.2,0.3-16.6c-0.5-2.7-4.2-6-7.1-6.7c-2-0.5-5.5,2.4-7.4,4.6c-2.3,2.6-3.5,6.1-5.2,9.3c-5.1-3.8-5.3-6.8-0.4-9.4
c3.7-2,4.4-4.5,2.8-8.2c-2.2-4.9-5.6-6.9-11.1-6.2c-6.6,0.9-13.1,1.7-19.7,2.6c-5.9,0.8-10.4,3.1-11.3,9.8c-0.3,2.2-1.7,4.3-3,7.1
c-3.3-4-5.7-7.2-8.3-10.1c-1.9-2.1-5-3.7-6.7-0.5c-3.4,6.2-6.7,12.6-8.6,19.4c-3.1,11.3-4.5,23-7.4,34.3c-3,12.1-3.6,23.8,1,35.7
c2.3,5.9,4.3,11.9,5.8,18c1.1,4.5,0.5,9.4,1.9,13.7c2.3,6.8,1.8,13.4,0.2,20.1c-1.6,6.4-5.3,10.4-9.5,10.1
c-5.9-0.4-7.5-5.2-8.4-9.8c-1.1-5.8-1.4-11.8-2-17.8c-0.3-3.1-1.9-5.2-5-4.9c-4.1,0.5-7.5,2.6-7.9,7.1c-0.3,3.8,0.3,7.6,0.4,11.4
c0.4,12.9,1,25.9,1.2,38.8c0,2-1.2,4.1-1.7,5.6c-3.8-1.4-7.3-2.7-10.8-4c6.2-14.9,6.5-14.9,4.7-27.6c-1-7.2-1.7-14.8-4.9-21.1
c-3.6-7.1-4.6-13.4-2.1-20.8c0.9-2.7,1.1-6,0.3-8.7c-2.6-8.4-10-11.1-17.9-6.2c-11.8,7.3-21.2,17-26,30.5
c-1.2,3.3-2.7,6.4-4.1,9.5c-4.2,9.2-10.6,17.5-12,28c-0.5,3.6-1.6,7.1-2,10.7c-0.4,2.9-1.4,3.6-4.3,2.8c-8-2-15.8-0.9-23.4,2.3
c-2.9,1.2-6.1,1.6-9.1,2.5c-2.3,0.7-4.8,1.3-6.7,2.7c-2.9,2.2-5.4,2.2-7.2-0.7c-2.7-4.5-5.8-9-7.3-13.9
c-4.6-15.4-12.9-28.7-22.6-41.2c-5.4-7-13-8.3-21.2-6.7c-5.7,1.1-7.5,4.9-6.7,10.7c0.5,3.9-0.1,8-0.6,12
c-2.1,15.4-5.2,30.8,1.4,46c0.5,1.2-0.2,3-0.4,4.5c-1.5-0.4-3.6-0.4-4.3-1.3c-2.8-4.1-6.1-8.1-7.5-12.7
c-2.5-8.5-4.9-17.3-5.4-26.1c-0.6-9.7,0.3-19.6,1.5-29.3c1-7.6,2.3-15.7,5.6-22.5c4.9-10.1,8.1-20.4,10.7-31.3
c4.2-18,1.1-34.5-6.1-50.8c-1.3-3-3.2-6.3-7.4-5.3c-3.9,0.9-3.9,4.5-4.3,7.6c-0.3,2.5-0.4,4.9-0.6,7.4c-2.3-3.6-3.3-7.3-4.7-10.8
c-2.2-5.7-5.5-7.8-11.3-6c-4.4,1.3-7.6,0.3-11.1-2.2c-5.8-4.1-8.5-2.8-9.3,4.3c-0.2,1.4,0.2,3,0.6,4.4c0.8,3.4,2.2,6.7,2.4,10.1
c0.1,2.1-1.7,4.2-2.6,6.4c-1.2-1.7-2.5-3.4-3.5-5.2c-0.4-0.8-0.2-2-0.4-2.9c-0.8-3.2-1.2-6.6-2.5-9.5c-1.5-3.4-5-5-8.3-3.3
c-2.1,1-4.4,3.9-4.5,6.1c-0.5,5.9,0.2,11.9,0.4,17.9c0.1,2.2,0.2,4.5,0.4,7.2c-7.1-1.9-9.6-7.2-11.9-12.5
c-2.3-5.3-4-10.9-6.5-16.1c-2.9-6.2-8.2-9.5-15.1-9.6c-4.9-0.1-7.9,2.5-8.4,7.4c-0.2,2.1-0.2,4.4,0.4,6.4
c2.9,9.7,6.3,19.2,8.8,28.9c1.5,5.9,2,12.1,2.4,18.2c0.1,1.8-1.7,3.7-2.6,5.5c-1.6-1-3.7-1.6-4.8-3c-1.8-2.3-3.1-5-4.4-7.7
c-2.4-5.1-4.5-10.3-7.1-15.3c-1.5-2.8-3.9-4.6-7.4-3.3c-5.6,2.1-9.6,9.9-7.6,15.5c2.3,6.5,4.9,13,8,19.2c4.8,9.5,7.4,19.5,8.4,30
c0.1,1.3-0.2,2.7-0.4,5.5c-4.5-5-7.7-9.3-11.7-12.6c-4.4-3.6-5.8-7.2-4.4-13c2.3-9.3-3.3-18.4-10.7-19.8
c-3.6-0.7-7.2-1.9-10.5-3.6c-5.1-2.6-8-1.5-9.5,4.1c-1.9,6.7,0.4,12.6,2.5,18.9c3.6,10.9,6.4,22.1,9.6,33.2c0,0.2,0,0.3,0,0.5
c1.7,19.3,7.7,36.9,20.3,52c8,9.6,15.4,19.6,22.9,29.6c3,4,5.3,8.4,7.9,12.6c-0.4,0.4-0.9,0.9-1.3,1.3c-2.8-0.9-5.7-1.5-8.2-2.7
c-9.5-4.7-18.9-9.6-28.4-14.3c-1.9-1-4-1.8-6-2.3c-5.7-1.3-12.9,3.3-14.9,9.2c-2,5.8,0.3,11.1,6.1,14.2c2.9,1.6,6,2.9,8.8,4.7
C55.8,293.9,66,301.2,77,307c12.4,6.5,25.4,11.9,40,7.4c6.2-1.9,12-4.9,18.2-6.6c12.4-3.4,24.9-7.3,37.6-8.7
c8.5-0.9,17-0.7,25.4-3.5c3.9-1.3,8.3-1.3,14-2.2c-1.6,4.7-2.7,7.7-3.7,10.8c-1.7,5.7-4.8,11.3-4.8,17c0,14.1-3.3,27.5-6.2,41.1
c-2.9,13.6-6.5,26.4-13.6,38.5c-6,10.2-8.4,21.6-7.8,33.5c0.5,11,0.1,21.8-3.5,32.5c-2.6,7.7-0.4,14,5.2,15.9
c7.9,2.7,12.3,7.8,14.5,15.6c0.9,3.1,3.1,5.4,6.7,4.7c9.6-1.7,17.9,1.4,26.2,5.8c5.9,3.1,12,3.4,18.1,0.1
c9.2-4.9,18.3-9.8,27.6-14.6c6.3-3.2,9.6-8.2,9.1-15.2c-0.3-4.4-1-8.9-2.2-13.2c-2.3-8.4,0.4-14.8,7.3-19.5
c4.9-3.3,10.3-6.1,15.5-9c8.6-4.8,15.1-11.3,17.9-21C319,414.1,320.2,412.1,321.1,410z M770.9,611c1.8,13.9,5.3,26.8,12.7,38.4
c4.8,7.6,9.9,15,14.9,22.4c21.6,32,35.7,66.2,32.6,105.9c-1.8,22.1-3.3,44.2-4,66.3c-0.7,18.8-8.1,34.3-19.9,48.3
c-9.3,10.9-18.7,21.6-28,32.6c-1.9,2.2-3.7,4.9-4.4,7.6c-0.5,2.2,0.1,5.7,1.6,7c1.4,1.2,5.1,1.1,7,0.1c3.3-1.6,5-1,6.1,2.1
c1.6,4.3,4.8,6.3,9.2,6.2c5-0.2,10.1-0.1,14.8-1.3c18.9-4.7,31-15.2,29.3-35.8c-0.7-8.3,2.5-14.4,8.4-19.8
c8.1-7.3,12.1-16.4,11.8-27.4c-0.1-4.6,0-9.4,0.6-14c2.3-16.1,4.8-32.2,7.2-48.3c3.8-26.2,9.9-51.8,20.6-76
c5.2-11.8,4-21.7-4.2-31.8c-5.6-6.8-10.6-14.6-14.1-22.7c-9.1-21-11.4-43.5-11.7-66.2c-0.1-8,0-15.9,0.2-23.9
c0.1-3.9,1.8-7.9,5.8-8.2c2.7-0.2,6.6,1.7,8.4,3.9c4.8,5.9,9.5,12.1,13,18.8c12.1,23,26.7,44,45.3,62.3
c8.2,8.1,14.1,17.9,15.5,29.5c1.7,14.4,6.7,27.3,15.8,38.6c6.9,8.5,11.2,18.3,14.3,28.7c8.6,28.3,17.5,56.6,26,85
c2.3,7.6,4.5,15.3,5.8,23.1c2.3,14-2.9,26.4-9.7,38.3c-6.8,11.8-10.9,24.5-12.7,38c-1.2,8.8,2.2,13,10.9,13.4
c4.8,0.2,9.7,0.1,14.5,0.6c21.5,2.3,36.9-14.6,32.6-35.6c-2.6-12.5-3.2-24.7,5.9-35.4c4.1-4.8,4-10.8,2-16.5
c-1.5-4-3.6-7.8-5.2-11.8c-4.4-11.2-10-22.2-12.9-33.8c-5.3-21-8.7-42.5-13.3-63.7c-3.2-14.6-5.5-29.1-3.5-44
c1.1-8.7-0.3-17.1-4.9-24.4c-4.6-7.3-9.8-14.2-15.3-20.9c-9-11.1-14.2-23.4-14.4-37.8c-0.4-23.6-0.9-47.2-5.7-70.5
c-3.6-17.2-6.7-34.4-10.1-51.7c-214.7,0-429.5,0-645.7,0c6.2,5.1,11.6,9,16.5,13.5c4,3.7,8.6,7.6,10.6,12.3
c4.1,9.7,6.8,20,9.8,30.2c2.5,8.4,3.8,17.2,7,25.2c2.5,6.3,7.3,11.3,14.3,13.8c8,2.8,15.8,6.3,23.8,9.1c4.9,1.8,10,3.7,15.2,4.1
c3.9,0.4,7,1,9.7,3.8c2.5,2.6,5,5.4,7.9,7.7c4.8,3.7,9.8,7.1,14.7,10.6c0.7,0.5,1.4,1.2,1.8,2c1.9,4.3,3.3,8.8,7.9,11.3
c0.5,0.3,0.6,1.4,0.7,2.1c1.2,7.2,2,14.4,3.7,21.5c5,22,11,43.7,15.3,65.8c5.5,28.3,9.6,56.9,14.4,85.4c4.5,27,7.2,54,5.9,81.5
c-0.6,11.7-5.2,19.9-16.6,23.9c-4.5,1.6-9.5,3.3-12.7,6.5c-9,9-16.4,19.2-20.1,31.7c-0.7,2.3-0.5,5.8,0.9,7.3c1.3,1.4,5,1.6,7.2,1
c3.5-1.1,5.3-0.5,6.3,3c1.4,4.9,5,6.1,9.7,5.5c7.6-0.9,15.2-1.6,22.8-2.2c13.8-1.1,24.6-6.9,30-20.3c3.2-8,8.8-10.8,17.1-10.8
c5.2,0,10.6-0.8,15.6-2.3c7.1-2.1,9.5-6,9.1-13.5c-0.2-3.3-0.7-6.6-1.2-9.9c-1.4-9.5-2.4-18.9,2.7-27.7c3.4-5.8,2.8-11.2-0.5-16.8
c-2.8-4.7-5.8-9.4-7.4-14.5c-13.3-41.6-25.8-83.5-39.4-125c-7.1-21.6-6.4-41.9,3.7-62.2c3.2-6.5,5.5-13.5,7.1-20.6
c1.2-5.3,0.4-11,0.9-16.4c0.9-9.3,5.5-13.7,14.7-14.3c3.5-0.2,7-0.3,10.5,0c15.8,1.2,31-0.7,46-6.3c15.2-5.7,31-10,47.5-9.6
c13,0.3,25.9,2.1,38.8,2.2c16.9,0.2,33.9-0.2,50.8-1C754.7,613.8,762.6,612.1,770.9,611z"/>
<path class="st0" d="M90,1009c-29.6,0-59.2,0-89,0c0-29.7,0-59.3,0-89c0.3,0,0.7,0,1,0c0,0,0,0,0,0c0.3,0.3,0.7,0.7,1,1
c0,0,0,0,0,0c0.3,0.3,0.7,0.7,1,1c0,0,0,0,0,0c0.3,0.3,0.7,0.7,1,1c0,0,0,0,0,0c0.3,0.3,0.7,0.7,1,1c0,0,0,0,0,0
c0.3,0.3,0.7,0.7,1,1c0,0,0,0,0,0c0.3,0.3,0.7,0.7,1,1c0,0,0,0,0,0c0.3,0.3,0.7,0.7,1,1c0,0,0,0,0,0c0.3,0.3,0.7,0.7,1,1
c0,0,0,0,0,0c0.3,0.3,0.7,0.7,1,1c0,0,0,0,0,0c0.3,0.3,0.7,0.7,1,1c0,0,0,0,0,0c0.3,0.3,0.7,0.7,1,1c0,0,0,0,0,0
c0.3,0.3,0.7,0.7,1,1c0,0,0,0,0,0c0.3,0.3,0.7,0.7,1,1c0,0,0,0,0,0c0.3,0.3,0.7,0.7,1,1c0,0,0,0,0,0c0.3,0.3,0.7,0.7,1,1
c0,0,0,0,0,0c0.3,0.3,0.7,0.7,1,1c0,0,0,0,0,0c0.3,0.3,0.7,0.7,1,1c0,0,0,0,0,0c0.3,0.3,0.7,0.7,1,1c0,0,0,0,0,0
c0.3,0.3,0.7,0.7,1,1c0,0,0,0,0,0c0.3,0.3,0.7,0.7,1,1c0,0,0,0,0,0c0.3,0.3,0.7,0.7,1,1c0,0,0,0,0,0c0.3,0.3,0.7,0.7,1,1
c0,0,0,0,0,0c0.3,0.3,0.7,0.7,1,1c0,0,0,0,0,0c0.3,0.3,0.7,0.7,1,1c0,0,0,0,0,0c0.3,0.3,0.7,0.7,1,1c0,0,0,0,0,0
c0.3,0.3,0.7,0.7,1,1c0,0,0,0,0,0c0.3,0.3,0.7,0.7,1,1c0,0,0,0,0,0c0.3,0.3,0.7,0.7,1,1c0,0,0,0,0,0c0.3,0.3,0.7,0.7,1,1
c0,0,0,0,0,0c0.3,0.3,0.7,0.7,1,1c0,0,0,0,0,0c0.3,0.3,0.7,0.7,1,1c0,0,0,0,0,0c0.3,0.3,0.7,0.7,1,1c0,0,0,0,0,0
c0.3,0.3,0.7,0.7,1,1c0,0,0,0,0,0c0.3,0.3,0.7,0.7,1,1c0,0,0,0,0,0c0.3,0.3,0.7,0.7,1,1c0,0,0,0,0,0c0.3,0.3,0.7,0.7,1,1
c0,0,0,0,0,0c0.3,0.3,0.7,0.7,1,1c0,0,0,0,0,0c0.3,0.3,0.7,0.7,1,1c0,0,0,0,0,0c0.3,0.3,0.7,0.7,1,1c0,0,0,0,0,0
c0.3,0.3,0.7,0.7,1,1c0,0,0,0,0,0c0.3,0.3,0.7,0.7,1,1c0,0,0,0,0,0c0.3,0.3,0.7,0.7,1,1c0,0,0,0,0,0c0.3,0.3,0.7,0.7,1,1
c0,0,0,0,0,0c0.3,0.3,0.7,0.7,1,1c0,0,0,0,0,0c0.3,0.3,0.7,0.7,1,1c0,0,0,0,0,0c0.3,0.3,0.7,0.7,1,1c0,0,0,0,0,0
c0.3,0.3,0.7,0.7,1,1c0,0,0,0,0,0c0.3,0.3,0.7,0.7,1,1c0,0,0,0,0,0c0.3,0.3,0.7,0.7,1,1c0,0,0,0,0,0c0.3,0.3,0.7,0.7,1,1
c0,0,0,0,0,0c0.3,0.3,0.7,0.7,1,1c0,0,0,0,0,0c0.3,0.3,0.7,0.7,1,1c0,0,0,0,0,0c0.3,0.3,0.7,0.7,1,1c0,0,0,0,0,0
c0.3,0.3,0.7,0.7,1,1c0,0,0,0,0,0c0.3,0.3,0.7,0.7,1,1c0,0,0,0,0,0c0.3,0.3,0.7,0.7,1,1c0,0,0,0,0,0c0.3,0.3,0.7,0.7,1,1
c0,0,0,0,0,0c0.3,0.3,0.7,0.7,1,1c0,0,0,0,0,0c0.3,0.3,0.7,0.7,1,1c0,0,0,0,0,0c0.3,0.3,0.7,0.7,1,1c0,0,0,0,0,0
c0.3,0.3,0.7,0.7,1,1c0,0,0,0,0,0c0.3,0.3,0.7,0.7,1,1c0,0,0,0,0,0c0.3,0.3,0.7,0.7,1,1c0,0,0,0,0,0c0.3,0.3,0.7,0.7,1,1
c0,0,0,0,0,0c0.3,0.3,0.7,0.7,1,1c0,0,0,0,0,0c0.3,0.3,0.7,0.7,1,1c0,0,0,0,0,0c0.3,0.3,0.7,0.7,1,1c0,0,0,0,0,0
c0.3,0.3,0.7,0.7,1,1c0,0,0,0,0,0c0.3,0.3,0.7,0.7,1,1c0,0,0,0,0,0c0.3,0.3,0.7,0.7,1,1c0,0,0,0,0,0c0.3,0.3,0.7,0.7,1,1
c0,0,0,0,0,0c0.3,0.3,0.7,0.7,1,1c0,0,0,0,0,0c0.3,0.3,0.7,0.7,1,1c0,0,0,0,0,0c0.3,0.3,0.7,0.7,1,1c0,0,0,0,0,0
c0.3,0.3,0.7,0.7,1,1c0,0,0,0,0,0c0.3,0.3,0.7,0.7,1,1c0,0,0,0,0,0c0.3,0.3,0.7,0.7,1,1c0,0,0,0,0,0c0.3,0.3,0.7,0.7,1,1
c0,0,0,0,0,0c0.3,0.3,0.7,0.7,1,1c0,0,0,0,0,0c0.3,0.3,0.7,0.7,1,1c0,0,0,0,0,0c0.3,0.3,0.7,0.7,1,1c0,0,0,0,0,0
c0.3,0.3,0.7,0.7,1,1c0,0,0,0,0,0c0.3,0.3,0.7,0.7,1,1c0,0,0,0,0,0c0.3,0.3,0.7,0.7,1,1c0,0,0,0,0,0c0.3,0.3,0.7,0.7,1,1
c0,0,0,0,0,0c0.3,0.3,0.7,0.7,1,1c0,0,0,0,0,0c0.3,0.3,0.7,0.7,1,1c0,0,0,0,0,0c0.3,0.3,0.7,0.7,1,1c0,0,0,0,0,0
C90,1008.3,90,1008.7,90,1009z"/>
<path class="st0" d="M1081,41c0,17.7,0,35.3,0,53c-0.3,0-0.7,0-1,0c0,0,0,0,0,0c-0.3-0.3-0.7-0.7-1-1c0,0,0,0,0,0
c-0.3-0.3-0.7-0.7-1-1c0,0,0,0,0,0c-0.3-0.3-0.7-0.7-1-1c0,0,0,0,0,0c-0.3-0.3-0.7-0.7-1-1c0,0,0,0,0,0c-0.3-0.3-0.7-0.7-1-1
c0,0,0,0,0,0c-0.3-0.3-0.7-0.7-1-1c0,0,0,0,0,0c-0.3-0.3-0.7-0.7-1-1c0,0,0,0,0,0c-0.3-0.3-0.7-0.7-1-1c0,0,0,0,0,0
c-0.3-0.3-0.7-0.7-1-1c0,0,0,0,0,0c-0.3-0.3-0.7-0.7-1-1c0,0,0,0,0,0c-0.3-0.3-0.7-0.7-1-1c0,0,0,0,0,0c-0.3-0.3-0.7-0.7-1-1
c0,0,0,0,0,0c-0.3-0.3-0.7-0.7-1-1c0,0,0,0,0,0c-0.3-0.3-0.7-0.7-1-1c0,0,0,0,0,0c-0.3-0.3-0.7-0.7-1-1c0,0,0,0,0,0
c-0.3-0.3-0.7-0.7-1-1c0,0,0,0,0,0c-0.3-0.3-0.7-0.7-1-1c0,0,0,0,0,0c-0.3-0.3-0.7-0.7-1-1c0,0,0,0,0,0c-0.3-0.3-0.7-0.7-1-1
c0,0,0,0,0,0c-0.3-0.3-0.7-0.7-1-1c0,0,0,0,0,0c-0.3-0.3-0.7-0.7-1-1c0,0,0,0,0,0c-0.3-0.3-0.7-0.7-1-1c0,0,0,0,0,0
c-0.3-0.3-0.7-0.7-1-1c0,0,0,0,0,0c-0.3-0.3-0.7-0.7-1-1c0,0,0,0,0,0c-0.3-0.3-0.7-0.7-1-1c0,0,0,0,0,0c-0.3-0.3-0.7-0.7-1-1
c0,0,0,0,0,0c-0.3-0.3-0.7-0.7-1-1c0,0,0,0,0,0c-0.3-0.3-0.7-0.7-1-1c0,0,0,0,0,0c-0.3-0.3-0.7-0.7-1-1c0,0,0,0,0,0
c-0.3-0.3-0.7-0.7-1-1c0,0,0,0,0,0c-0.3-0.3-0.7-0.7-1-1c0,0,0,0,0,0c-0.3-0.3-0.7-0.7-1-1c0,0,0,0,0,0c-0.3-0.3-0.7-0.7-1-1
c0,0,0,0,0,0c-0.3-0.3-0.7-0.7-1-1c0,0,0,0,0,0c-0.3-0.3-0.7-0.7-1-1c0,0,0,0,0,0c-0.3-0.3-0.7-0.7-1-1c0,0,0,0,0,0
c-0.3-0.3-0.7-0.7-1-1c0,0,0,0,0,0c-0.3-0.3-0.7-0.7-1-1c0,0,0,0,0,0c-0.3-0.3-0.7-0.7-1-1c0,0,0,0,0,0c-0.3-0.3-0.7-0.7-1-1
c0,0,0,0,0,0c-0.3-0.3-0.7-0.7-1-1c0,0,0,0,0,0c-0.3-0.3-0.7-0.7-1-1c0,0,0,0,0,0c-0.3-0.3-0.7-0.7-1-1c0,0,0,0,0,0
c-0.3-0.3-0.7-0.7-1-1c0,0,0,0,0,0c-0.3-0.3-0.7-0.7-1-1c0,0,0,0,0,0c-0.3-0.3-0.7-0.7-1-1c0,0,0,0,0,0c-0.3-0.3-0.7-0.7-1-1
c0,0,0,0,0,0c-0.3-0.3-0.7-0.7-1-1c0,0,0,0,0,0c-0.3-0.3-0.7-0.7-1-1c0,0,0,0,0,0c-0.3-0.3-0.7-0.7-1-1c0,0,0,0,0,0
c-0.3-0.3-0.7-0.7-1-1c0,0,0,0,0,0c-0.3-0.3-0.7-0.7-1-1c0,0,0,0,0,0c-0.3-0.3-0.7-0.7-1-1c0,0,0,0,0,0c-0.3-0.3-0.7-0.7-1-1
c0,0,0,0,0,0c-0.3-0.3-0.7-0.7-1-1c0,0,0,0,0,0c-0.3-0.3-0.7-0.7-1-1c0,0,0,0,0,0c-0.3-0.3-0.7-0.7-1-1c0,0,0,0,0,0
c-0.3-0.3-0.7-0.7-1-1c0,0,0,0,0,0c-0.3-0.3-0.7-0.7-1-1c0,0,0,0,0,0c-0.3-0.3-0.7-0.7-1-1c0,0,0,0,0,0c-0.3-0.3-0.7-0.7-1-1
c0,0,0,0,0,0c-0.3-0.3-0.7-0.7-1-1c0,0,0,0,0,0c-0.3-0.3-0.7-0.7-1-1c0,0,0,0,0,0c-0.3-0.3-0.7-0.7-1-1c0,0,0,0,0,0
c-0.3-0.3-0.7-0.7-1-1c0,0,0,0,0,0c-0.3-0.3-0.7-0.7-1-1c0,0,0,0,0,0c-0.3-0.3-0.7-0.7-1-1c0,0,0,0,0,0c-0.3-0.3-0.7-0.7-1-1
c0,0,0,0,0,0c-0.3-0.3-0.7-0.7-1-1c0,0,0,0,0,0c-0.3-0.3-0.7-0.7-1-1c0,0,0,0,0,0c-0.3-0.3-0.7-0.7-1-1c0,0,0,0,0,0
c-0.3-0.3-0.7-0.7-1-1c0,0,0,0,0,0c-0.3-0.3-0.7-0.7-1-1c0,0,0,0,0,0c-0.3-0.3-0.7-0.7-1-1c0,0,0,0,0,0c-0.3-0.3-0.7-0.7-1-1
c0,0,0,0,0,0c-0.3-0.3-0.7-0.7-1-1c0,0,0,0,0,0c-0.3-0.3-0.7-0.7-1-1c0,0,0,0,0,0c-0.3-0.3-0.7-0.7-1-1c0,0,0,0,0,0
c-0.3-0.3-0.7-0.7-1-1c0,0,0,0,0,0c-0.3-0.3-0.7-0.7-1-1c0,0,0,0,0,0c-0.3-0.3-0.7-0.7-1-1c0,0,0,0,0,0c-0.3-0.3-0.7-0.7-1-1
c0,0,0,0,0,0c-0.3-0.3-0.7-0.7-1-1c0,0,0,0,0,0c-0.3-0.3-0.7-0.7-1-1c0,0,0,0,0,0c-0.3-0.3-0.7-0.7-1-1c0,0,0,0,0,0
c-0.3-0.3-0.7-0.7-1-1c0,0,0,0,0,0c-0.3-0.3-0.7-0.7-1-1c0,0,0,0,0,0c-0.3-0.3-0.7-0.7-1-1c0,0,0,0,0,0c-0.3-0.3-0.7-0.7-1-1
c0,0,0,0,0,0c-0.3-0.3-0.7-0.7-1-1c0,0,0,0,0,0c-0.3-0.3-0.7-0.7-1-1c0,0,0,0,0,0c-0.3-0.3-0.7-0.7-1-1c0,0,0,0,0,0
c0-0.3,0-0.7,0-1c17.7,0,35.3,0,53,0c0.7,1,1.3,2,2,3c0,0,0,0,0,0c0.3,0.3,0.7,0.7,1,1c0,0,0,0,0,0c0.3,0.3,0.7,0.7,1,1
c0,0,0,0,0,0c0.3,0.3,0.7,0.7,1,1c0,0,0,0,0,0c0.3,0.3,0.7,0.7,1,1c0,0,0,0,0,0c0.3,0.3,0.7,0.7,1,1c0,0,0,0,0,0
c0.3,0.3,0.7,0.7,1,1c0,0,0,0,0,0c0.3,0.3,0.7,0.7,1,1c0,0,0,0,0,0c0.3,0.3,0.7,0.7,1,1c0,0,0,0,0,0c0.3,0.3,0.7,0.7,1,1
c0,0,0,0,0,0c0.3,0.3,0.7,0.7,1,1c0,0,0,0,0,0c0.3,0.3,0.7,0.7,1,1c0,0,0,0,0,0c0.3,0.3,0.7,0.7,1,1c0,0,0,0,0,0
c0.3,0.3,0.7,0.7,1,1c0,0,0,0,0,0c0.3,0.3,0.7,0.7,1,1c0,0,0,0,0,0c0.3,0.3,0.7,0.7,1,1c0,0,0,0,0,0c0.3,0.3,0.7,0.7,1,1
c0,0,0,0,0,0c0.3,0.3,0.7,0.7,1,1c0,0,0,0,0,0c0.3,0.3,0.7,0.7,1,1c0,0,0,0,0,0c0.3,0.3,0.7,0.7,1,1c0,0,0,0,0,0
c0.3,0.3,0.7,0.7,1,1c0,0,0,0,0,0c0.3,0.3,0.7,0.7,1,1c0,0,0,0,0,0c0.3,0.3,0.7,0.7,1,1c0,0,0,0,0,0c0.3,0.3,0.7,0.7,1,1
c0,0,0,0,0,0c0.3,0.3,0.7,0.7,1,1c0,0,0,0,0,0c0.3,0.3,0.7,0.7,1,1c0,0,0,0,0,0c0.3,0.3,0.7,0.7,1,1c0,0,0,0,0,0
c0.3,0.3,0.7,0.7,1,1c0,0,0,0,0,0c0.3,0.3,0.7,0.7,1,1c0,0,0,0,0,0c0.3,0.3,0.7,0.7,1,1c0,0,0,0,0,0c0.3,0.3,0.7,0.7,1,1
c0,0,0,0,0,0c0.3,0.3,0.7,0.7,1,1c0,0,0,0,0,0c0.3,0.3,0.7,0.7,1,1c0,0,0,0,0,0c0.3,0.3,0.7,0.7,1,1c0,0,0,0,0,0
c0.3,0.3,0.7,0.7,1,1c0,0,0,0,0,0c0.3,0.3,0.7,0.7,1,1c0,0,0,0,0,0C1079,39.7,1080,40.3,1081,41z"/>
<path class="st0" d="M1042,1c12.9,0,25.8,0,39,0c0,13,0,26,0,39c-1-0.3-2-0.7-3-1c0,0,0,0,0,0c-0.3-0.3-0.7-0.7-1-1c0,0,0,0,0,0
c-0.3-0.3-0.7-0.7-1-1c0,0,0,0,0,0c-0.3-0.3-0.7-0.7-1-1c0,0,0,0,0,0c-0.3-0.3-0.7-0.7-1-1c0,0,0,0,0,0c-0.3-0.3-0.7-0.7-1-1
c0,0,0,0,0,0c-0.3-0.3-0.7-0.7-1-1c0,0,0,0,0,0c-0.3-0.3-0.7-0.7-1-1c0,0,0,0,0,0c-0.3-0.3-0.7-0.7-1-1c0,0,0,0,0,0
c-0.3-0.3-0.7-0.7-1-1c0,0,0,0,0,0c-0.3-0.3-0.7-0.7-1-1c0,0,0,0,0,0c-0.3-0.3-0.7-0.7-1-1c0,0,0,0,0,0c-0.3-0.3-0.7-0.7-1-1
c0,0,0,0,0,0c-0.3-0.3-0.7-0.7-1-1c0,0,0,0,0,0c-0.3-0.3-0.7-0.7-1-1c0,0,0,0,0,0c-0.3-0.3-0.7-0.7-1-1c0,0,0,0,0,0
c-0.3-0.3-0.7-0.7-1-1c0,0,0,0,0,0c-0.3-0.3-0.7-0.7-1-1c0,0,0,0,0,0c-0.3-0.3-0.7-0.7-1-1c0,0,0,0,0,0c-0.3-0.3-0.7-0.7-1-1
c0,0,0,0,0,0c-0.3-0.3-0.7-0.7-1-1c0,0,0,0,0,0c-0.3-0.3-0.7-0.7-1-1c0,0,0,0,0,0c-0.3-0.3-0.7-0.7-1-1c0,0,0,0,0,0
c-0.3-0.3-0.7-0.7-1-1c0,0,0,0,0,0c-0.3-0.3-0.7-0.7-1-1c0,0,0,0,0,0c-0.3-0.3-0.7-0.7-1-1c0,0,0,0,0,0c-0.3-0.3-0.7-0.7-1-1
c0,0,0,0,0,0c-0.3-0.3-0.7-0.7-1-1c0,0,0,0,0,0c-0.3-0.3-0.7-0.7-1-1c0,0,0,0,0,0c-0.3-0.3-0.7-0.7-1-1c0,0,0,0,0,0
c-0.3-0.3-0.7-0.7-1-1c0,0,0,0,0,0c-0.3-0.3-0.7-0.7-1-1c0,0,0,0,0,0c-0.3-0.3-0.7-0.7-1-1c0,0,0,0,0,0c-0.3-0.3-0.7-0.7-1-1
c0,0,0,0,0,0c-0.3-0.3-0.7-0.7-1-1c0,0,0,0,0,0c-0.3-0.3-0.7-0.7-1-1c0,0,0,0,0,0C1042.7,3,1042.3,2,1042,1z"/>
<path class="st1" d="M1042,1c0.3,1,0.7,2,1,3c-0.7-1-1.3-2-2-3C1041.3,1,1041.7,1,1042,1z"/>
<path class="st1" d="M1078,39c1,0.3,2,0.7,3,1c0,0.3,0,0.7,0,1C1080,40.3,1079,39.7,1078,39z"/>
<path class="st2" d="M90,1009c0-0.3,0-0.7,0-1c0.7,0.3,1.3,0.7,2,1C91.3,1009,90.7,1009,90,1009z"/>
<path class="st2" d="M2,920c-0.3,0-0.7,0-1,0c0-0.7,0-1.3,0-2C1.3,918.7,1.7,919.3,2,920z"/>
<path class="st2" d="M1080,94c0.3,0,0.7,0,1,0c0,0.7,0,1.3,0,2C1080.7,95.3,1080.3,94.7,1080,94z"/>
<path class="st2" d="M988,1c0,0.3,0,0.7,0,1c-0.7-0.3-1.3-0.7-2-1C986.7,1,987.3,1,988,1z"/>
<path class="st3" d="M321.1,410c-0.9,2.1-2.1,4.1-2.7,6.2c-2.7,9.8-9.2,16.3-17.9,21c-5.2,2.9-10.5,5.7-15.5,9
c-6.9,4.7-9.6,11.1-7.3,19.5c1.2,4.3,1.9,8.8,2.2,13.2c0.5,7-2.8,12-9.1,15.2c-9.3,4.7-18.5,9.6-27.6,14.6
c-6.1,3.3-12.3,3-18.1-0.1c-8.2-4.4-16.6-7.5-26.2-5.8c-3.6,0.6-5.8-1.6-6.7-4.7c-2.2-7.7-6.6-12.9-14.5-15.6
c-5.6-1.9-7.8-8.3-5.2-15.9c3.6-10.7,4-21.5,3.5-32.5c-0.6-11.9,1.8-23.3,7.8-33.5c7.1-12.1,10.7-24.9,13.6-38.5
c2.9-13.7,6.3-27,6.2-41.1c0-5.7,3.1-11.3,4.8-17c1-3.1,2.1-6.1,3.7-10.8c-5.8,0.8-10.1,0.8-14,2.2c-8.3,2.9-16.9,2.6-25.4,3.5
c-12.7,1.4-25.2,5.4-37.6,8.7c-6.2,1.7-12.1,4.7-18.2,6.6c-14.5,4.5-27.6-0.9-40-7.4c-11-5.8-21.2-13-31.8-19.5
c-2.8-1.7-5.9-3.1-8.8-4.7c-5.8-3.1-8.1-8.3-6.1-14.2c2-5.9,9.2-10.5,14.9-9.2c2.1,0.5,4.1,1.3,6,2.3c9.5,4.7,18.9,9.6,28.4,14.3
c2.6,1.3,5.5,1.8,8.2,2.7c0.4-0.4,0.9-0.9,1.3-1.3c-2.6-4.2-5-8.6-7.9-12.6c-7.5-10-14.9-20.1-22.9-29.6
c-12.6-15.1-18.6-32.7-20.3-52c0-0.2,0-0.3,0-0.5c-3.2-11.1-6-22.2-9.6-33.2c-2-6.2-4.3-12.2-2.5-18.9c1.6-5.6,4.4-6.7,9.5-4.1
c3.3,1.7,6.9,2.9,10.5,3.6c7.4,1.4,13,10.5,10.7,19.8c-1.4,5.8,0.1,9.3,4.4,13c4,3.3,7.2,7.7,11.7,12.6c0.2-2.8,0.5-4.2,0.4-5.5
c-1-10.5-3.6-20.5-8.4-30c-3.1-6.2-5.7-12.7-8-19.2c-2-5.6,2.1-13.4,7.6-15.5c3.5-1.3,6,0.5,7.4,3.3c2.6,5,4.7,10.2,7.1,15.3
c1.3,2.7,2.6,5.4,4.4,7.7c1.1,1.4,3.2,2,4.8,3c0.9-1.8,2.8-3.7,2.6-5.5c-0.4-6.1-0.9-12.3-2.4-18.2c-2.5-9.8-6-19.3-8.8-28.9
c-0.6-2-0.6-4.3-0.4-6.4c0.5-4.9,3.4-7.5,8.4-7.4c7,0.1,12.2,3.4,15.1,9.6c2.5,5.2,4.2,10.8,6.5,16.1c2.3,5.3,4.8,10.6,11.9,12.5
c-0.2-2.7-0.3-4.9-0.4-7.2c-0.2-6-0.8-12-0.4-17.9c0.2-2.2,2.5-5.1,4.5-6.1c3.3-1.6,6.8-0.1,8.3,3.3c1.3,2.9,1.7,6.3,2.5,9.5
c0.2,1,0,2.1,0.4,2.9c1,1.8,2.3,3.5,3.5,5.2c0.9-2.1,2.7-4.3,2.6-6.4c-0.2-3.4-1.6-6.7-2.4-10.1c-0.3-1.4-0.7-3-0.6-4.4
c0.8-7.1,3.6-8.4,9.3-4.3c3.5,2.5,6.7,3.5,11.1,2.2c5.8-1.7,9.1,0.3,11.3,6c1.3,3.5,2.3,7.2,4.7,10.8c0.2-2.5,0.3-5,0.6-7.4
c0.4-3.1,0.3-6.7,4.3-7.6c4.2-1,6.1,2.2,7.4,5.3c7.2,16.3,10.3,32.9,6.1,50.8c-2.6,10.9-5.7,21.2-10.7,31.3
c-3.3,6.8-4.6,14.8-5.6,22.5c-1.2,9.7-2.1,19.6-1.5,29.3c0.6,8.8,2.9,17.6,5.4,26.1c1.4,4.6,4.7,8.7,7.5,12.7
c0.7,1,2.8,0.9,4.3,1.3c0.2-1.5,0.9-3.3,0.4-4.5c-6.6-15.2-3.5-30.6-1.4-46c0.5-4,1.1-8.1,0.6-12c-0.8-5.8,1-9.6,6.7-10.7
c8.2-1.6,15.8-0.3,21.2,6.7c9.7,12.5,18,25.8,22.6,41.2c1.5,4.9,4.5,9.5,7.3,13.9c1.8,2.9,4.3,2.9,7.2,0.7c1.8-1.4,4.4-2,6.7-2.7
c3-0.9,6.2-1.3,9.1-2.5c7.6-3.2,15.4-4.3,23.4-2.3c2.9,0.7,3.9,0,4.3-2.8c0.5-3.6,1.5-7.1,2-10.7c1.4-10.5,7.8-18.7,12-28
c1.4-3.2,3-6.3,4.1-9.5c4.8-13.5,14.2-23.1,26-30.5c7.9-4.9,15.2-2.1,17.9,6.2c0.8,2.6,0.6,6-0.3,8.7c-2.5,7.4-1.5,13.7,2.1,20.8
c3.2,6.3,3.9,14,4.9,21.1c1.8,12.7,1.5,12.7-4.7,27.6c3.5,1.3,7.1,2.6,10.8,4c0.5-1.5,1.7-3.6,1.7-5.6
c-0.2-12.9-0.8-25.9-1.2-38.8c-0.1-3.8-0.7-7.6-0.4-11.4c0.4-4.5,3.8-6.6,7.9-7.1c3.2-0.4,4.7,1.7,5,4.9c0.6,5.9,0.9,11.9,2,17.8
c0.8,4.6,2.5,9.3,8.4,9.8c4.2,0.3,7.9-3.7,9.5-10.1c1.6-6.7,2.1-13.3-0.2-20.1c-1.4-4.3-0.8-9.3-1.9-13.7
c-1.5-6.1-3.5-12.1-5.8-18c-4.6-11.8-4-23.6-1-35.7c2.8-11.3,4.3-23,7.4-34.3c1.8-6.8,5.2-13.2,8.6-19.4c1.7-3.2,4.8-1.6,6.7,0.5
c2.7,2.9,5,6.1,8.3,10.1c1.2-2.9,2.7-4.9,3-7.1c0.9-6.8,5.3-9.1,11.3-9.8c6.6-0.8,13.1-1.7,19.7-2.6c5.6-0.7,9,1.3,11.1,6.2
c1.6,3.7,0.9,6.2-2.8,8.2c-4.9,2.7-4.7,5.6,0.4,9.4c1.7-3.2,3-6.7,5.2-9.3c1.9-2.2,5.4-5.1,7.4-4.6c2.9,0.7,6.6,4,7.1,6.7
c1,5.3,0.7,11.2-0.3,16.6c-1.1,6.3-3.6,12.4-5.4,18.6c-0.5,1.6-1.2,3.1-1.4,4.8c-0.5,3.1-1.5,6.9,2.2,8.4c3.8,1.6,6.5-1.4,8-4.3
c1.9-3.7,4.1-6.4,8.3-7c3.1-0.5,3.1-2.7,3.3-5.2c0.4-4,0.8-8.3,2.4-11.9c1-2.3,4.3-4.7,6.7-4.7c1.8-0.1,4.4,3.1,5.5,5.3
c3.9,8.2,4.5,17.3,3,25.9c-3.8,23.2-7.1,46.6-15.1,68.9c-5.9,16.5-15,31.1-28.1,43c-3.5,3.1-6.5,6.8-10.1,9.6
c-4.5,3.5-9.2,7.4-14.4,9.4c-9.8,3.8-17.3,10.2-25.1,18.5c7.1-0.5,13.3-0.9,19.4-1.3c7-0.5,13.9-1.1,20.9-1.6
c26.7-1.8,51.1,5.6,74.6,17.5c20,10.1,39.8,20.6,60.4,29.5c25.6,11,52.7,18.2,80.2,22.4c11.5,1.8,23.6,0.5,35.3-0.7
c22.5-2.1,44.8-5.1,66.5-11.8c9.3-2.9,18.8-5.9,28.4-6.9c27.4-2.9,53.4,1.8,75.9,18.8c39.6,29.9,66.7,68.6,79.6,116.8
c2.8,10.5,2.8,21-1.1,31.3c-1.4,3.7-2,7.7-3.1,12.2c-1.6,0-3.3,0-5.1,0c-214.7,0-429.3,0-644,0.1c-4.4,0-6.4-1.4-8-5.4
c-4.2-11-8.7-21.8-13.1-32.8c-2-5.1-1.3-7,3.9-9.4c8.1-3.8,14.7-9,18.3-17.5C324.4,421,325,415.6,321.1,410z M619.2,377.2
c-13.2-9.4-25.9-18.5-39.5-28.2c0.3,1.7,0.4,2.3,0.6,2.9c4.2,13.3,8.4,26.5,12.8,39.7c0.9,2.7,0.6,4.2-1.8,5.7
c-3.8,2.4-7.3,5.3-10.9,7.9c-8.2,6.1-16.4,12.2-25.5,18.9c2.4,0.2,3.7,0.3,5,0.3c13.1,0,26.3,0.1,39.4,0c3.2,0,4.7,0.9,5.6,4
c4.1,12.9,8.5,25.8,12.8,38.7c0.3,0.9,0.8,1.8,1.5,3.2c4.7-14.5,9.3-28.1,13.7-41.9c0.9-2.8,2.1-3.9,5.2-3.9
c12.6,0.2,25.3,0.1,38,0.1c2,0,4,0,6,0c0-0.4,0.1-0.8,0.1-1.2c-12.8-9.4-25.6-18.8-38.3-28.1c4.9-15.4,9.6-30.3,14.3-45.2
c-0.3-0.2-0.6-0.3-0.9-0.5C644.8,358.8,632.1,367.9,619.2,377.2z M770.5,471.8c4.8-14.8,9.5-28.5,13.9-42.4c1-3.1,2.3-4.4,5.9-4.4
c13.3,0.2,26.6,0.1,40,0c1.2,0,2.4-0.1,4.6-0.3c-10.8-7.9-20.7-15.2-30.6-22.4c-8.7-6.4-8.6-6.4-5.4-16.4
c3.8-11.9,7.5-23.8,11.6-36.7c-13.8,10-26.8,19.2-39.7,28.5c-13.2-9.5-26.1-18.7-39.9-28.5c4.8,15,9.1,28.9,13.7,42.7
c1,2.9,0.6,4.5-1.9,6.2c-6.4,4.5-12.6,9.2-18.9,13.9c-5.5,4.1-11,8.2-17.7,13.1c15.4,0,29.3,0.3,43.3-0.2c4.8-0.1,6.5,1.6,7.9,5.8
C761.2,444.2,765.7,457.5,770.5,471.8z M467.6,377.8c-13.1-9.4-26.1-18.7-39.8-28.5c4.7,14.8,9,28.7,13.6,42.4c1,3,0.7,4.7-2,6.6
c-11,7.8-21.8,15.9-32.6,23.9c-0.9,0.7-1.7,1.6-3.1,2.8c11.3,0,21.8,0,32.3,0c5.3,0,12-1.6,15.5,0.9c3.5,2.6,3.9,9.4,5.6,14.5
c3.4,10.1,6.8,20.2,10.5,31.1c4.8-14.5,9.4-28,13.5-41.6c1.2-3.9,3-5.1,7-4.9c8.6,0.3,17.3,0.1,26,0.1c5.5,0,11.1,0,18,0
c-12.8-9.4-24.3-18-36.1-26.4c-2.8-2-3.3-3.7-2.3-6.9c4.6-13.8,8.8-27.7,13.5-42.5C493.5,359.1,480.6,368.4,467.6,377.8z"/>
<path class="st4" d="M770.9,611c-8.4,1.1-16.2,2.8-24.1,3.2c-16.9,0.7-33.9,1.2-50.8,1c-13-0.2-25.9-1.9-38.8-2.2
c-16.5-0.4-32.3,3.9-47.5,9.6c-15,5.6-30.2,7.5-46,6.3c-3.5-0.3-7-0.2-10.5,0c-9.2,0.6-13.9,5-14.7,14.3
c-0.5,5.5,0.3,11.2-0.9,16.4c-1.6,7-3.9,14.1-7.1,20.6c-10.1,20.3-10.8,40.6-3.7,62.2c13.7,41.5,26.2,83.3,39.4,125
c1.6,5.1,4.7,9.9,7.4,14.5c3.3,5.6,3.9,11,0.5,16.8c-5.1,8.8-4.1,18.2-2.7,27.7c0.5,3.3,1,6.6,1.2,9.9c0.4,7.5-2,11.4-9.1,13.5
c-5,1.5-10.4,2.3-15.6,2.3c-8.3,0-13.8,2.7-17.1,10.8c-5.3,13.3-16.1,19.1-30,20.3c-7.6,0.6-15.2,1.3-22.8,2.2
c-4.7,0.6-8.3-0.6-9.7-5.5c-1-3.5-2.8-4.1-6.3-3c-2.2,0.7-5.8,0.4-7.2-1c-1.4-1.4-1.5-5-0.9-7.3c3.6-12.4,11.1-22.7,20.1-31.7
c3.2-3.2,8.2-5,12.7-6.5c11.4-4,16-12.1,16.6-23.9c1.3-27.4-1.4-54.5-5.9-81.5c-4.8-28.5-8.9-57-14.4-85.4
c-4.3-22.1-10.3-43.9-15.3-65.8c-1.6-7.1-2.4-14.4-3.7-21.5c-0.1-0.7-0.2-1.9-0.7-2.1c-4.6-2.5-6-7-7.9-11.3c-0.3-0.8-1-1.5-1.8-2
c-4.9-3.6-10-6.9-14.7-10.6c-2.9-2.2-5.3-5-7.9-7.7c-2.7-2.8-5.8-3.5-9.7-3.8c-5.1-0.5-10.2-2.4-15.2-4.1
c-8-2.9-15.8-6.3-23.8-9.1c-7-2.5-11.8-7.5-14.3-13.8c-3.2-8.1-4.5-16.9-7-25.2c-3-10.2-5.7-20.5-9.8-30.2
c-2-4.8-6.6-8.6-10.6-12.3c-4.8-4.5-10.2-8.5-16.5-13.5c216.3,0,431.1,0,645.7,0c3.3,17.3,6.5,34.6,10.1,51.7
c4.9,23.3,5.4,46.9,5.7,70.5c0.2,14.5,5.4,26.8,14.4,37.8c5.4,6.7,10.7,13.6,15.3,20.9c4.7,7.4,6.1,15.8,4.9,24.4
c-2,14.9,0.3,29.4,3.5,44c4.6,21.2,8.1,42.7,13.3,63.7c2.9,11.6,8.4,22.6,12.9,33.8c1.6,4,3.7,7.8,5.2,11.8
c2.1,5.8,2.1,11.8-2,16.5c-9.2,10.7-8.5,23-5.9,35.4c4.3,20.9-11.1,37.8-32.6,35.6c-4.8-0.5-9.6-0.4-14.5-0.6
c-8.7-0.4-12.1-4.6-10.9-13.4c1.9-13.5,6-26.1,12.7-38c6.8-11.9,12-24.3,9.7-38.3c-1.3-7.8-3.5-15.5-5.8-23.1
c-8.6-28.3-17.4-56.6-26-85c-3.2-10.4-7.5-20.2-14.3-28.7c-9.1-11.3-14.1-24.2-15.8-38.6c-1.4-11.6-7.3-21.4-15.5-29.5
c-18.5-18.3-33.1-39.4-45.3-62.3c-3.5-6.7-8.2-12.9-13-18.8c-1.8-2.2-5.7-4.1-8.4-3.9c-4,0.3-5.7,4.3-5.8,8.2
c-0.2,8-0.3,15.9-0.2,23.9c0.2,22.7,2.6,45.2,11.7,66.2c3.5,8.1,8.5,15.9,14.1,22.7c8.3,10.1,9.5,20,4.2,31.8
c-10.7,24.2-16.8,49.8-20.6,76c-2.4,16.1-5,32.2-7.2,48.3c-0.6,4.6-0.8,9.3-0.6,14c0.3,11-3.7,20.1-11.8,27.4
c-5.9,5.3-9.1,11.5-8.4,19.8c1.7,20.7-10.4,31.1-29.3,35.8c-4.8,1.2-9.9,1.1-14.8,1.3c-4.4,0.1-7.6-1.9-9.2-6.2
c-1.2-3.2-2.8-3.8-6.1-2.1c-2,1-5.6,1.1-7-0.1c-1.5-1.3-2.1-4.8-1.6-7c0.6-2.7,2.5-5.4,4.4-7.6c9.2-10.9,18.7-21.7,28-32.6
c11.8-13.9,19.2-29.5,19.9-48.3c0.8-22.1,2.3-44.2,4-66.3c3.2-39.7-11-73.9-32.6-105.9c-5-7.4-10.1-14.9-14.9-22.4
C776.3,637.8,772.8,624.9,770.9,611z M526.7,827.2c-8.5,7.4,0.5,54.9,13,70.4c0-3.6,0.3-6-0.1-8.3c-0.9-4.9-2.2-9.7-3.1-14.6
C533.6,859.1,523.8,845.1,526.7,827.2z"/>
<path class="st2" d="M12,930c-0.3-0.3-0.7-0.7-1-1C11.3,929.3,11.7,929.7,12,930z"/>
<path class="st2" d="M13,931c-0.3-0.3-0.7-0.7-1-1C12.3,930.3,12.7,930.7,13,931z"/>
<path class="st2" d="M14,932c-0.3-0.3-0.7-0.7-1-1C13.3,931.3,13.7,931.7,14,932z"/>
<path class="st2" d="M15,933c-0.3-0.3-0.7-0.7-1-1C14.3,932.3,14.7,932.7,15,933z"/>
<path class="st2" d="M16,934c-0.3-0.3-0.7-0.7-1-1C15.3,933.3,15.7,933.7,16,934z"/>
<path class="st2" d="M17,935c-0.3-0.3-0.7-0.7-1-1C16.3,934.3,16.7,934.7,17,935z"/>
<path class="st2" d="M18,936c-0.3-0.3-0.7-0.7-1-1C17.3,935.3,17.7,935.7,18,936z"/>
<path class="st2" d="M19,937c-0.3-0.3-0.7-0.7-1-1C18.3,936.3,18.7,936.7,19,937z"/>
<path class="st2" d="M20,938c-0.3-0.3-0.7-0.7-1-1C19.3,937.3,19.7,937.7,20,938z"/>
<path class="st2" d="M21,939c-0.3-0.3-0.7-0.7-1-1C20.3,938.3,20.7,938.7,21,939z"/>
<path class="st2" d="M22,940c-0.3-0.3-0.7-0.7-1-1C21.3,939.3,21.7,939.7,22,940z"/>
<path class="st2" d="M23,941c-0.3-0.3-0.7-0.7-1-1C22.3,940.3,22.7,940.7,23,941z"/>
<path class="st2" d="M24,942c-0.3-0.3-0.7-0.7-1-1C23.3,941.3,23.7,941.7,24,942z"/>
<path class="st2" d="M25,943c-0.3-0.3-0.7-0.7-1-1C24.3,942.3,24.7,942.7,25,943z"/>
<path class="st2" d="M26,944c-0.3-0.3-0.7-0.7-1-1C25.3,943.3,25.7,943.7,26,944z"/>
<path class="st2" d="M27,945c-0.3-0.3-0.7-0.7-1-1C26.3,944.3,26.7,944.7,27,945z"/>
<path class="st2" d="M28,946c-0.3-0.3-0.7-0.7-1-1C27.3,945.3,27.7,945.7,28,946z"/>
<path class="st2" d="M29,947c-0.3-0.3-0.7-0.7-1-1C28.3,946.3,28.7,946.7,29,947z"/>
<path class="st2" d="M30,948c-0.3-0.3-0.7-0.7-1-1C29.3,947.3,29.7,947.7,30,948z"/>
<path class="st2" d="M31,949c-0.3-0.3-0.7-0.7-1-1C30.3,948.3,30.7,948.7,31,949z"/>
<path class="st2" d="M32,950c-0.3-0.3-0.7-0.7-1-1C31.3,949.3,31.7,949.7,32,950z"/>
<path class="st2" d="M33,951c-0.3-0.3-0.7-0.7-1-1C32.3,950.3,32.7,950.7,33,951z"/>
<path class="st2" d="M34,952c-0.3-0.3-0.7-0.7-1-1C33.3,951.3,33.7,951.7,34,952z"/>
<path class="st2" d="M35,953c-0.3-0.3-0.7-0.7-1-1C34.3,952.3,34.7,952.7,35,953z"/>
<path class="st2" d="M36,954c-0.3-0.3-0.7-0.7-1-1C35.3,953.3,35.7,953.7,36,954z"/>
<path class="st2" d="M37,955c-0.3-0.3-0.7-0.7-1-1C36.3,954.3,36.7,954.7,37,955z"/>
<path class="st2" d="M1071,85c0.3,0.3,0.7,0.7,1,1C1071.7,85.7,1071.3,85.3,1071,85z"/>
<path class="st2" d="M1072,86c0.3,0.3,0.7,0.7,1,1C1072.7,86.7,1072.3,86.3,1072,86z"/>
<path class="st2" d="M1073,87c0.3,0.3,0.7,0.7,1,1C1073.7,87.7,1073.3,87.3,1073,87z"/>
<path class="st2" d="M1074,88c0.3,0.3,0.7,0.7,1,1C1074.7,88.7,1074.3,88.3,1074,88z"/>
<path class="st2" d="M1075,89c0.3,0.3,0.7,0.7,1,1C1075.7,89.7,1075.3,89.3,1075,89z"/>
<path class="st2" d="M1076,90c0.3,0.3,0.7,0.7,1,1C1076.7,90.7,1076.3,90.3,1076,90z"/>
<path class="st2" d="M1077,91c0.3,0.3,0.7,0.7,1,1C1077.7,91.7,1077.3,91.3,1077,91z"/>
<path class="st2" d="M1078,92c0.3,0.3,0.7,0.7,1,1C1078.7,92.7,1078.3,92.3,1078,92z"/>
<path class="st2" d="M1079,93c0.3,0.3,0.7,0.7,1,1C1079.7,93.7,1079.3,93.3,1079,93z"/>
<path class="st2" d="M993,7c0.3,0.3,0.7,0.7,1,1C993.7,7.7,993.3,7.3,993,7z"/>
<path class="st2" d="M992,6c0.3,0.3,0.7,0.7,1,1C992.7,6.7,992.3,6.3,992,6z"/>
<path class="st2" d="M991,5c0.3,0.3,0.7,0.7,1,1C991.7,5.7,991.3,5.3,991,5z"/>
<path class="st2" d="M990,4c0.3,0.3,0.7,0.7,1,1C990.7,4.7,990.3,4.3,990,4z"/>
<path class="st2" d="M989,3c0.3,0.3,0.7,0.7,1,1C989.7,3.7,989.3,3.3,989,3z"/>
<path class="st2" d="M3,921c-0.3-0.3-0.7-0.7-1-1C2.3,920.3,2.7,920.7,3,921z"/>
<path class="st2" d="M4,922c-0.3-0.3-0.7-0.7-1-1C3.3,921.3,3.7,921.7,4,922z"/>
<path class="st2" d="M5,923c-0.3-0.3-0.7-0.7-1-1C4.3,922.3,4.7,922.7,5,923z"/>
<path class="st2" d="M6,924c-0.3-0.3-0.7-0.7-1-1C5.3,923.3,5.7,923.7,6,924z"/>
<path class="st2" d="M7,925c-0.3-0.3-0.7-0.7-1-1C6.3,924.3,6.7,924.7,7,925z"/>
<path class="st2" d="M8,926c-0.3-0.3-0.7-0.7-1-1C7.3,925.3,7.7,925.7,8,926z"/>
<path class="st2" d="M9,927c-0.3-0.3-0.7-0.7-1-1C8.3,926.3,8.7,926.7,9,927z"/>
<path class="st2" d="M10,928c-0.3-0.3-0.7-0.7-1-1C9.3,927.3,9.7,927.7,10,928z"/>
<path class="st2" d="M11,929c-0.3-0.3-0.7-0.7-1-1C10.3,928.3,10.7,928.7,11,929z"/>
<path class="st2" d="M64,982c-0.3-0.3-0.7-0.7-1-1C63.3,981.3,63.7,981.7,64,982z"/>
<path class="st2" d="M65,983c-0.3-0.3-0.7-0.7-1-1C64.3,982.3,64.7,982.7,65,983z"/>
<path class="st2" d="M66,984c-0.3-0.3-0.7-0.7-1-1C65.3,983.3,65.7,983.7,66,984z"/>
<path class="st2" d="M67,985c-0.3-0.3-0.7-0.7-1-1C66.3,984.3,66.7,984.7,67,985z"/>
<path class="st2" d="M68,986c-0.3-0.3-0.7-0.7-1-1C67.3,985.3,67.7,985.7,68,986z"/>
<path class="st2" d="M69,987c-0.3-0.3-0.7-0.7-1-1C68.3,986.3,68.7,986.7,69,987z"/>
<path class="st2" d="M70,988c-0.3-0.3-0.7-0.7-1-1C69.3,987.3,69.7,987.7,70,988z"/>
<path class="st2" d="M71,989c-0.3-0.3-0.7-0.7-1-1C70.3,988.3,70.7,988.7,71,989z"/>
<path class="st2" d="M72,990c-0.3-0.3-0.7-0.7-1-1C71.3,989.3,71.7,989.7,72,990z"/>
<path class="st2" d="M73,991c-0.3-0.3-0.7-0.7-1-1C72.3,990.3,72.7,990.7,73,991z"/>
<path class="st2" d="M74,992c-0.3-0.3-0.7-0.7-1-1C73.3,991.3,73.7,991.7,74,992z"/>
<path class="st2" d="M75,993c-0.3-0.3-0.7-0.7-1-1C74.3,992.3,74.7,992.7,75,993z"/>
<path class="st2" d="M76,994c-0.3-0.3-0.7-0.7-1-1C75.3,993.3,75.7,993.7,76,994z"/>
<path class="st2" d="M77,995c-0.3-0.3-0.7-0.7-1-1C76.3,994.3,76.7,994.7,77,995z"/>
<path class="st2" d="M78,996c-0.3-0.3-0.7-0.7-1-1C77.3,995.3,77.7,995.7,78,996z"/>
<path class="st2" d="M79,997c-0.3-0.3-0.7-0.7-1-1C78.3,996.3,78.7,996.7,79,997z"/>
<path class="st2" d="M80,998c-0.3-0.3-0.7-0.7-1-1C79.3,997.3,79.7,997.7,80,998z"/>
<path class="st2" d="M81,999c-0.3-0.3-0.7-0.7-1-1C80.3,998.3,80.7,998.7,81,999z"/>
<path class="st2" d="M82,1000c-0.3-0.3-0.7-0.7-1-1C81.3,999.3,81.7,999.7,82,1000z"/>
<path class="st2" d="M83,1001c-0.3-0.3-0.7-0.7-1-1C82.3,1000.3,82.7,1000.7,83,1001z"/>
<path class="st2" d="M84,1002c-0.3-0.3-0.7-0.7-1-1C83.3,1001.3,83.7,1001.7,84,1002z"/>
<path class="st2" d="M85,1003c-0.3-0.3-0.7-0.7-1-1C84.3,1002.3,84.7,1002.7,85,1003z"/>
<path class="st2" d="M86,1004c-0.3-0.3-0.7-0.7-1-1C85.3,1003.3,85.7,1003.7,86,1004z"/>
<path class="st2" d="M87,1005c-0.3-0.3-0.7-0.7-1-1C86.3,1004.3,86.7,1004.7,87,1005z"/>
<path class="st2" d="M88,1006c-0.3-0.3-0.7-0.7-1-1C87.3,1005.3,87.7,1005.7,88,1006z"/>
<path class="st2" d="M89,1007c-0.3-0.3-0.7-0.7-1-1C88.3,1006.3,88.7,1006.7,89,1007z"/>
<path class="st2" d="M90,1008c-0.3-0.3-0.7-0.7-1-1C89.3,1007.3,89.7,1007.7,90,1008z"/>
<path class="st2" d="M38,956c-0.3-0.3-0.7-0.7-1-1C37.3,955.3,37.7,955.7,38,956z"/>
<path class="st2" d="M39,957c-0.3-0.3-0.7-0.7-1-1C38.3,956.3,38.7,956.7,39,957z"/>
<path class="st2" d="M40,958c-0.3-0.3-0.7-0.7-1-1C39.3,957.3,39.7,957.7,40,958z"/>
<path class="st2" d="M41,959c-0.3-0.3-0.7-0.7-1-1C40.3,958.3,40.7,958.7,41,959z"/>
<path class="st2" d="M42,960c-0.3-0.3-0.7-0.7-1-1C41.3,959.3,41.7,959.7,42,960z"/>
<path class="st2" d="M43,961c-0.3-0.3-0.7-0.7-1-1C42.3,960.3,42.7,960.7,43,961z"/>
<path class="st2" d="M44,962c-0.3-0.3-0.7-0.7-1-1C43.3,961.3,43.7,961.7,44,962z"/>
<path class="st2" d="M45,963c-0.3-0.3-0.7-0.7-1-1C44.3,962.3,44.7,962.7,45,963z"/>
<path class="st2" d="M46,964c-0.3-0.3-0.7-0.7-1-1C45.3,963.3,45.7,963.7,46,964z"/>
<path class="st2" d="M47,965c-0.3-0.3-0.7-0.7-1-1C46.3,964.3,46.7,964.7,47,965z"/>
<path class="st2" d="M48,966c-0.3-0.3-0.7-0.7-1-1C47.3,965.3,47.7,965.7,48,966z"/>
<path class="st2" d="M49,967c-0.3-0.3-0.7-0.7-1-1C48.3,966.3,48.7,966.7,49,967z"/>
<path class="st2" d="M50,968c-0.3-0.3-0.7-0.7-1-1C49.3,967.3,49.7,967.7,50,968z"/>
<path class="st2" d="M51,969c-0.3-0.3-0.7-0.7-1-1C50.3,968.3,50.7,968.7,51,969z"/>
<path class="st2" d="M52,970c-0.3-0.3-0.7-0.7-1-1C51.3,969.3,51.7,969.7,52,970z"/>
<path class="st2" d="M53,971c-0.3-0.3-0.7-0.7-1-1C52.3,970.3,52.7,970.7,53,971z"/>
<path class="st2" d="M54,972c-0.3-0.3-0.7-0.7-1-1C53.3,971.3,53.7,971.7,54,972z"/>
<path class="st2" d="M55,973c-0.3-0.3-0.7-0.7-1-1C54.3,972.3,54.7,972.7,55,973z"/>
<path class="st2" d="M56,974c-0.3-0.3-0.7-0.7-1-1C55.3,973.3,55.7,973.7,56,974z"/>
<path class="st2" d="M57,975c-0.3-0.3-0.7-0.7-1-1C56.3,974.3,56.7,974.7,57,975z"/>
<path class="st2" d="M58,976c-0.3-0.3-0.7-0.7-1-1C57.3,975.3,57.7,975.7,58,976z"/>
<path class="st2" d="M59,977c-0.3-0.3-0.7-0.7-1-1C58.3,976.3,58.7,976.7,59,977z"/>
<path class="st2" d="M988,2c0.3,0.3,0.7,0.7,1,1C988.7,2.7,988.3,2.3,988,2z"/>
<path class="st2" d="M60,978c-0.3-0.3-0.7-0.7-1-1C59.3,977.3,59.7,977.7,60,978z"/>
<path class="st2" d="M61,979c-0.3-0.3-0.7-0.7-1-1C60.3,978.3,60.7,978.7,61,979z"/>
<path class="st2" d="M62,980c-0.3-0.3-0.7-0.7-1-1C61.3,979.3,61.7,979.7,62,980z"/>
<path class="st2" d="M63,981c-0.3-0.3-0.7-0.7-1-1C62.3,980.3,62.7,980.7,63,981z"/>
<path class="st2" d="M1008,22c0.3,0.3,0.7,0.7,1,1C1008.7,22.7,1008.3,22.3,1008,22z"/>
<path class="st2" d="M1009,23c0.3,0.3,0.7,0.7,1,1C1009.7,23.7,1009.3,23.3,1009,23z"/>
<path class="st2" d="M1010,24c0.3,0.3,0.7,0.7,1,1C1010.7,24.7,1010.3,24.3,1010,24z"/>
<path class="st2" d="M1011,25c0.3,0.3,0.7,0.7,1,1C1011.7,25.7,1011.3,25.3,1011,25z"/>
<path class="st2" d="M1012,26c0.3,0.3,0.7,0.7,1,1C1012.7,26.7,1012.3,26.3,1012,26z"/>
<path class="st2" d="M1013,27c0.3,0.3,0.7,0.7,1,1C1013.7,27.7,1013.3,27.3,1013,27z"/>
<path class="st2" d="M1014,28c0.3,0.3,0.7,0.7,1,1C1014.7,28.7,1014.3,28.3,1014,28z"/>
<path class="st2" d="M1015,29c0.3,0.3,0.7,0.7,1,1C1015.7,29.7,1015.3,29.3,1015,29z"/>
<path class="st2" d="M1016,30c0.3,0.3,0.7,0.7,1,1C1016.7,30.7,1016.3,30.3,1016,30z"/>
<path class="st2" d="M1017,31c0.3,0.3,0.7,0.7,1,1C1017.7,31.7,1017.3,31.3,1017,31z"/>
<path class="st2" d="M1018,32c0.3,0.3,0.7,0.7,1,1C1018.7,32.7,1018.3,32.3,1018,32z"/>
<path class="st2" d="M1019,33c0.3,0.3,0.7,0.7,1,1C1019.7,33.7,1019.3,33.3,1019,33z"/>
<path class="st2" d="M1020,34c0.3,0.3,0.7,0.7,1,1C1020.7,34.7,1020.3,34.3,1020,34z"/>
<path class="st2" d="M1021,35c0.3,0.3,0.7,0.7,1,1C1021.7,35.7,1021.3,35.3,1021,35z"/>
<path class="st2" d="M995,9c0.3,0.3,0.7,0.7,1,1C995.7,9.7,995.3,9.3,995,9z"/>
<path class="st2" d="M996,10c0.3,0.3,0.7,0.7,1,1C996.7,10.7,996.3,10.3,996,10z"/>
<path class="st2" d="M997,11c0.3,0.3,0.7,0.7,1,1C997.7,11.7,997.3,11.3,997,11z"/>
<path class="st2" d="M998,12c0.3,0.3,0.7,0.7,1,1C998.7,12.7,998.3,12.3,998,12z"/>
<path class="st2" d="M999,13c0.3,0.3,0.7,0.7,1,1C999.7,13.7,999.3,13.3,999,13z"/>
<path class="st2" d="M1000,14c0.3,0.3,0.7,0.7,1,1C1000.7,14.7,1000.3,14.3,1000,14z"/>
<path class="st2" d="M1001,15c0.3,0.3,0.7,0.7,1,1C1001.7,15.7,1001.3,15.3,1001,15z"/>
<path class="st2" d="M1002,16c0.3,0.3,0.7,0.7,1,1C1002.7,16.7,1002.3,16.3,1002,16z"/>
<path class="st2" d="M1003,17c0.3,0.3,0.7,0.7,1,1C1003.7,17.7,1003.3,17.3,1003,17z"/>
<path class="st2" d="M1004,18c0.3,0.3,0.7,0.7,1,1C1004.7,18.7,1004.3,18.3,1004,18z"/>
<path class="st2" d="M1005,19c0.3,0.3,0.7,0.7,1,1C1005.7,19.7,1005.3,19.3,1005,19z"/>
<path class="st2" d="M1006,20c0.3,0.3,0.7,0.7,1,1C1006.7,20.7,1006.3,20.3,1006,20z"/>
<path class="st2" d="M1007,21c0.3,0.3,0.7,0.7,1,1C1007.7,21.7,1007.3,21.3,1007,21z"/>
<path class="st2" d="M1044,58c0.3,0.3,0.7,0.7,1,1C1044.7,58.7,1044.3,58.3,1044,58z"/>
<path class="st2" d="M1045,59c0.3,0.3,0.7,0.7,1,1C1045.7,59.7,1045.3,59.3,1045,59z"/>
<path class="st2" d="M1046,60c0.3,0.3,0.7,0.7,1,1C1046.7,60.7,1046.3,60.3,1046,60z"/>
<path class="st2" d="M1047,61c0.3,0.3,0.7,0.7,1,1C1047.7,61.7,1047.3,61.3,1047,61z"/>
<path class="st2" d="M1048,62c0.3,0.3,0.7,0.7,1,1C1048.7,62.7,1048.3,62.3,1048,62z"/>
<path class="st2" d="M1049,63c0.3,0.3,0.7,0.7,1,1C1049.7,63.7,1049.3,63.3,1049,63z"/>
<path class="st2" d="M1050,64c0.3,0.3,0.7,0.7,1,1C1050.7,64.7,1050.3,64.3,1050,64z"/>
<path class="st2" d="M1051,65c0.3,0.3,0.7,0.7,1,1C1051.7,65.7,1051.3,65.3,1051,65z"/>
<path class="st2" d="M1052,66c0.3,0.3,0.7,0.7,1,1C1052.7,66.7,1052.3,66.3,1052,66z"/>
<path class="st2" d="M1053,67c0.3,0.3,0.7,0.7,1,1C1053.7,67.7,1053.3,67.3,1053,67z"/>
<path class="st2" d="M1054,68c0.3,0.3,0.7,0.7,1,1C1054.7,68.7,1054.3,68.3,1054,68z"/>
<path class="st2" d="M1055,69c0.3,0.3,0.7,0.7,1,1C1055.7,69.7,1055.3,69.3,1055,69z"/>
<path class="st2" d="M1056,70c0.3,0.3,0.7,0.7,1,1C1056.7,70.7,1056.3,70.3,1056,70z"/>
<path class="st2" d="M1057,71c0.3,0.3,0.7,0.7,1,1C1057.7,71.7,1057.3,71.3,1057,71z"/>
<path class="st2" d="M1058,72c0.3,0.3,0.7,0.7,1,1C1058.7,72.7,1058.3,72.3,1058,72z"/>
<path class="st2" d="M1059,73c0.3,0.3,0.7,0.7,1,1C1059.7,73.7,1059.3,73.3,1059,73z"/>
<path class="st2" d="M1060,74c0.3,0.3,0.7,0.7,1,1C1060.7,74.7,1060.3,74.3,1060,74z"/>
<path class="st2" d="M1061,75c0.3,0.3,0.7,0.7,1,1C1061.7,75.7,1061.3,75.3,1061,75z"/>
<path class="st2" d="M1062,76c0.3,0.3,0.7,0.7,1,1C1062.7,76.7,1062.3,76.3,1062,76z"/>
<path class="st2" d="M1063,77c0.3,0.3,0.7,0.7,1,1C1063.7,77.7,1063.3,77.3,1063,77z"/>
<path class="st2" d="M1064,78c0.3,0.3,0.7,0.7,1,1C1064.7,78.7,1064.3,78.3,1064,78z"/>
<path class="st2" d="M1065,79c0.3,0.3,0.7,0.7,1,1C1065.7,79.7,1065.3,79.3,1065,79z"/>
<path class="st2" d="M1066,80c0.3,0.3,0.7,0.7,1,1C1066.7,80.7,1066.3,80.3,1066,80z"/>
<path class="st2" d="M1067,81c0.3,0.3,0.7,0.7,1,1C1067.7,81.7,1067.3,81.3,1067,81z"/>
<path class="st2" d="M1068,82c0.3,0.3,0.7,0.7,1,1C1068.7,82.7,1068.3,82.3,1068,82z"/>
<path class="st2" d="M1069,83c0.3,0.3,0.7,0.7,1,1C1069.7,83.7,1069.3,83.3,1069,83z"/>
<path class="st2" d="M1070,84c0.3,0.3,0.7,0.7,1,1C1070.7,84.7,1070.3,84.3,1070,84z"/>
<path class="st2" d="M1022,36c0.3,0.3,0.7,0.7,1,1C1022.7,36.7,1022.3,36.3,1022,36z"/>
<path class="st2" d="M1023,37c0.3,0.3,0.7,0.7,1,1C1023.7,37.7,1023.3,37.3,1023,37z"/>
<path class="st2" d="M1024,38c0.3,0.3,0.7,0.7,1,1C1024.7,38.7,1024.3,38.3,1024,38z"/>
<path class="st2" d="M1025,39c0.3,0.3,0.7,0.7,1,1C1025.7,39.7,1025.3,39.3,1025,39z"/>
<path class="st2" d="M994,8c0.3,0.3,0.7,0.7,1,1C994.7,8.7,994.3,8.3,994,8z"/>
<path class="st2" d="M1026,40c0.3,0.3,0.7,0.7,1,1C1026.7,40.7,1026.3,40.3,1026,40z"/>
<path class="st2" d="M1027,41c0.3,0.3,0.7,0.7,1,1C1027.7,41.7,1027.3,41.3,1027,41z"/>
<path class="st2" d="M1028,42c0.3,0.3,0.7,0.7,1,1C1028.7,42.7,1028.3,42.3,1028,42z"/>
<path class="st2" d="M1029,43c0.3,0.3,0.7,0.7,1,1C1029.7,43.7,1029.3,43.3,1029,43z"/>
<path class="st2" d="M1030,44c0.3,0.3,0.7,0.7,1,1C1030.7,44.7,1030.3,44.3,1030,44z"/>
<path class="st2" d="M1031,45c0.3,0.3,0.7,0.7,1,1C1031.7,45.7,1031.3,45.3,1031,45z"/>
<path class="st2" d="M1032,46c0.3,0.3,0.7,0.7,1,1C1032.7,46.7,1032.3,46.3,1032,46z"/>
<path class="st2" d="M1033,47c0.3,0.3,0.7,0.7,1,1C1033.7,47.7,1033.3,47.3,1033,47z"/>
<path class="st2" d="M1034,48c0.3,0.3,0.7,0.7,1,1C1034.7,48.7,1034.3,48.3,1034,48z"/>
<path class="st2" d="M1035,49c0.3,0.3,0.7,0.7,1,1C1035.7,49.7,1035.3,49.3,1035,49z"/>
<path class="st2" d="M1036,50c0.3,0.3,0.7,0.7,1,1C1036.7,50.7,1036.3,50.3,1036,50z"/>
<path class="st2" d="M1037,51c0.3,0.3,0.7,0.7,1,1C1037.7,51.7,1037.3,51.3,1037,51z"/>
<path class="st2" d="M1038,52c0.3,0.3,0.7,0.7,1,1C1038.7,52.7,1038.3,52.3,1038,52z"/>
<path class="st2" d="M1039,53c0.3,0.3,0.7,0.7,1,1C1039.7,53.7,1039.3,53.3,1039,53z"/>
<path class="st2" d="M1040,54c0.3,0.3,0.7,0.7,1,1C1040.7,54.7,1040.3,54.3,1040,54z"/>
<path class="st2" d="M1041,55c0.3,0.3,0.7,0.7,1,1C1041.7,55.7,1041.3,55.3,1041,55z"/>
<path class="st2" d="M1042,56c0.3,0.3,0.7,0.7,1,1C1042.7,56.7,1042.3,56.3,1042,56z"/>
<path class="st2" d="M1043,57c0.3,0.3,0.7,0.7,1,1C1043.7,57.7,1043.3,57.3,1043,57z"/>
<path class="st1" d="M1046,7c0.3,0.3,0.7,0.7,1,1C1046.7,7.7,1046.3,7.3,1046,7z"/>
<path class="st1" d="M1045,6c0.3,0.3,0.7,0.7,1,1C1045.7,6.7,1045.3,6.3,1045,6z"/>
<path class="st1" d="M1044,5c0.3,0.3,0.7,0.7,1,1C1044.7,5.7,1044.3,5.3,1044,5z"/>
<path class="st1" d="M1043,4c0.3,0.3,0.7,0.7,1,1C1043.7,4.7,1043.3,4.3,1043,4z"/>
<path class="st1" d="M1061,22c0.3,0.3,0.7,0.7,1,1C1061.7,22.7,1061.3,22.3,1061,22z"/>
<path class="st1" d="M1062,23c0.3,0.3,0.7,0.7,1,1C1062.7,23.7,1062.3,23.3,1062,23z"/>
<path class="st1" d="M1063,24c0.3,0.3,0.7,0.7,1,1C1063.7,24.7,1063.3,24.3,1063,24z"/>
<path class="st1" d="M1064,25c0.3,0.3,0.7,0.7,1,1C1064.7,25.7,1064.3,25.3,1064,25z"/>
<path class="st1" d="M1065,26c0.3,0.3,0.7,0.7,1,1C1065.7,26.7,1065.3,26.3,1065,26z"/>
<path class="st1" d="M1066,27c0.3,0.3,0.7,0.7,1,1C1066.7,27.7,1066.3,27.3,1066,27z"/>
<path class="st1" d="M1067,28c0.3,0.3,0.7,0.7,1,1C1067.7,28.7,1067.3,28.3,1067,28z"/>
<path class="st1" d="M1068,29c0.3,0.3,0.7,0.7,1,1C1068.7,29.7,1068.3,29.3,1068,29z"/>
<path class="st1" d="M1069,30c0.3,0.3,0.7,0.7,1,1C1069.7,30.7,1069.3,30.3,1069,30z"/>
<path class="st1" d="M1070,31c0.3,0.3,0.7,0.7,1,1C1070.7,31.7,1070.3,31.3,1070,31z"/>
<path class="st1" d="M1071,32c0.3,0.3,0.7,0.7,1,1C1071.7,32.7,1071.3,32.3,1071,32z"/>
<path class="st1" d="M1072,33c0.3,0.3,0.7,0.7,1,1C1072.7,33.7,1072.3,33.3,1072,33z"/>
<path class="st1" d="M1073,34c0.3,0.3,0.7,0.7,1,1C1073.7,34.7,1073.3,34.3,1073,34z"/>
<path class="st1" d="M1047,8c0.3,0.3,0.7,0.7,1,1C1047.7,8.7,1047.3,8.3,1047,8z"/>
<path class="st1" d="M1048,9c0.3,0.3,0.7,0.7,1,1C1048.7,9.7,1048.3,9.3,1048,9z"/>
<path class="st1" d="M1049,10c0.3,0.3,0.7,0.7,1,1C1049.7,10.7,1049.3,10.3,1049,10z"/>
<path class="st1" d="M1050,11c0.3,0.3,0.7,0.7,1,1C1050.7,11.7,1050.3,11.3,1050,11z"/>
<path class="st1" d="M1051,12c0.3,0.3,0.7,0.7,1,1C1051.7,12.7,1051.3,12.3,1051,12z"/>
<path class="st1" d="M1052,13c0.3,0.3,0.7,0.7,1,1C1052.7,13.7,1052.3,13.3,1052,13z"/>
<path class="st1" d="M1053,14c0.3,0.3,0.7,0.7,1,1C1053.7,14.7,1053.3,14.3,1053,14z"/>
<path class="st1" d="M1054,15c0.3,0.3,0.7,0.7,1,1C1054.7,15.7,1054.3,15.3,1054,15z"/>
<path class="st1" d="M1055,16c0.3,0.3,0.7,0.7,1,1C1055.7,16.7,1055.3,16.3,1055,16z"/>
<path class="st1" d="M1056,17c0.3,0.3,0.7,0.7,1,1C1056.7,17.7,1056.3,17.3,1056,17z"/>
<path class="st1" d="M1057,18c0.3,0.3,0.7,0.7,1,1C1057.7,18.7,1057.3,18.3,1057,18z"/>
<path class="st1" d="M1058,19c0.3,0.3,0.7,0.7,1,1C1058.7,19.7,1058.3,19.3,1058,19z"/>
<path class="st1" d="M1059,20c0.3,0.3,0.7,0.7,1,1C1059.7,20.7,1059.3,20.3,1059,20z"/>
<path class="st1" d="M1060,21c0.3,0.3,0.7,0.7,1,1C1060.7,21.7,1060.3,21.3,1060,21z"/>
<path class="st1" d="M1074,35c0.3,0.3,0.7,0.7,1,1C1074.7,35.7,1074.3,35.3,1074,35z"/>
<path class="st1" d="M1075,36c0.3,0.3,0.7,0.7,1,1C1075.7,36.7,1075.3,36.3,1075,36z"/>
<path class="st1" d="M1076,37c0.3,0.3,0.7,0.7,1,1C1076.7,37.7,1076.3,37.3,1076,37z"/>
<path class="st1" d="M1077,38c0.3,0.3,0.7,0.7,1,1C1077.7,38.7,1077.3,38.3,1077,38z"/>
<path class="st5" d="M619.2,377.2c12.9-9.3,25.5-18.4,38.2-27.5c0.3,0.2,0.6,0.3,0.9,0.5c-4.7,14.9-9.4,29.8-14.3,45.2
c12.7,9.3,25.5,18.7,38.3,28.1c0,0.4-0.1,0.8-0.1,1.2c-2,0-4,0-6,0c-12.7,0-25.3,0.1-38-0.1c-3.1,0-4.3,1.1-5.2,3.9
c-4.4,13.7-8.9,27.4-13.7,41.9c-0.7-1.4-1.2-2.2-1.5-3.2c-4.3-12.9-8.7-25.7-12.8-38.7c-1-3.1-2.5-4-5.6-4
c-13.1,0.2-26.3,0.1-39.4,0c-1.3,0-2.6-0.2-5-0.3c9.1-6.7,17.3-12.8,25.5-18.9c3.6-2.7,7.1-5.5,10.9-7.9c2.4-1.6,2.7-3,1.8-5.7
c-4.4-13.2-8.6-26.5-12.8-39.7c-0.2-0.6-0.2-1.2-0.6-2.9C593.3,358.7,606,367.8,619.2,377.2z"/>
<path class="st6" d="M770.5,471.8c-4.7-14.3-9.3-27.6-13.5-41.1c-1.3-4.3-3-6-7.9-5.8c-13.9,0.4-27.8,0.2-43.3,0.2
c6.6-4.9,12.1-9,17.7-13.1c6.3-4.6,12.5-9.4,18.9-13.9c2.5-1.7,2.9-3.3,1.9-6.2c-4.6-13.8-8.9-27.7-13.7-42.7
c13.8,9.9,26.7,19.1,39.9,28.5c12.9-9.3,25.8-18.6,39.7-28.5c-4.1,12.9-7.8,24.8-11.6,36.7c-3.2,10.1-3.2,10.1,5.4,16.4
c9.9,7.3,19.8,14.5,30.6,22.4c-2.2,0.1-3.4,0.3-4.6,0.3c-13.3,0-26.7,0.2-40,0c-3.6-0.1-4.9,1.2-5.9,4.4
C779.9,443.3,775.3,457,770.5,471.8z"/>
<path class="st6" d="M467.6,377.8c13-9.4,25.9-18.7,39.6-28.5c-4.7,14.8-8.9,28.7-13.5,42.5c-1.1,3.3-0.6,4.9,2.3,6.9
c11.7,8.3,23.3,17,36.1,26.4c-6.9,0-12.4,0-18,0c-8.7,0-17.3,0.3-26-0.1c-4-0.1-5.8,1-7,4.9c-4.2,13.6-8.8,27.1-13.5,41.6
c-3.7-10.9-7.1-21-10.5-31.1c-1.7-5-2.1-11.9-5.6-14.5c-3.5-2.6-10.2-0.9-15.5-0.9c-10.5-0.1-20.9,0-32.3,0
c1.4-1.3,2.2-2.1,3.1-2.8c10.8-8,21.6-16.1,32.6-23.9c2.7-1.9,3-3.6,2-6.6c-4.6-13.8-8.9-27.7-13.6-42.4
C441.5,359.1,454.5,368.4,467.6,377.8z"/>
<path class="st7" d="M526.7,827.2c-2.9,17.9,6.9,32,9.8,47.6c0.9,4.9,2.3,9.7,3.1,14.6c0.4,2.3,0.1,4.7,0.1,8.3
C527.2,882.1,518.2,834.6,526.7,827.2z"/>
</svg>